<svg width="187" height="24" viewBox="0 0 187 24" fill="none" xmlns="http://www.w3.org/2000/svg">
<path d="M8.1 19.225C6.78333 19.225 5.55833 19.075 4.425 18.775C3.29167 18.4583 2.36667 18.0167 1.65 17.45C1.4 17.2667 1.21667 17.075 1.1 16.875C1 16.6583 0.95 16.3917 0.95 16.075C0.95 15.6583 1.075 15.2917 1.325 14.975C1.59167 14.6583 1.89167 14.5 2.225 14.5C2.40833 14.5 2.58333 14.5333 2.75 14.6C2.93333 14.65 3.15 14.75 3.4 14.9C4.11667 15.35 4.84167 15.6833 5.575 15.9C6.30833 16.1 7.11667 16.2 8 16.2C9.1 16.2 9.94167 16.0167 10.525 15.65C11.1083 15.2833 11.4 14.7583 11.4 14.075C11.4 13.5583 11.125 13.1417 10.575 12.825C10.0417 12.5083 9.08333 12.2083 7.7 11.925C6.15 11.6083 4.90833 11.225 3.975 10.775C3.05833 10.325 2.38333 9.76667 1.95 9.1C1.53333 8.43333 1.325 7.625 1.325 6.675C1.325 5.625 1.625 4.68333 2.225 3.85C2.84167 3 3.68333 2.34167 4.75 1.875C5.83333 1.39167 7.05 1.15 8.4 1.15C10.7667 1.15 12.7167 1.74167 14.25 2.925C14.5 3.125 14.675 3.33333 14.775 3.55C14.8917 3.75 14.95 4 14.95 4.3C14.95 4.71667 14.8167 5.08333 14.55 5.4C14.3 5.71667 14.0083 5.875 13.675 5.875C13.4917 5.875 13.3167 5.85 13.15 5.8C13 5.75 12.7833 5.64167 12.5 5.475C11.8167 5.04167 11.1833 4.71667 10.6 4.5C10.0333 4.28333 9.30833 4.175 8.425 4.175C7.40833 4.175 6.60833 4.375 6.025 4.775C5.44167 5.15833 5.15 5.69167 5.15 6.375C5.15 6.775 5.25833 7.10833 5.475 7.375C5.70833 7.625 6.08333 7.85 6.6 8.05C7.13333 8.25 7.88333 8.45833 8.85 8.675C11.1167 9.175 12.7417 9.81667 13.725 10.6C14.725 11.3833 15.225 12.4583 15.225 13.825C15.225 14.8917 14.925 15.8333 14.325 16.65C13.7417 17.4667 12.9083 18.1 11.825 18.55C10.7583 19 9.51667 19.225 8.1 19.225ZM25.3342 6.425C26.3842 6.425 27.3175 6.7 28.1342 7.25C28.9675 7.78333 29.6092 8.54167 30.0592 9.525C30.5258 10.4917 30.7592 11.6083 30.7592 12.875C30.7592 14.1417 30.5258 15.2583 30.0592 16.225C29.6092 17.175 28.9758 17.9083 28.1592 18.425C27.3425 18.9417 26.4008 19.2 25.3342 19.2C24.5008 19.2 23.7425 19.0333 23.0592 18.7C22.3925 18.35 21.8758 17.8667 21.5092 17.25V21.975C21.5092 22.475 21.3425 22.875 21.0092 23.175C20.6758 23.475 20.2342 23.625 19.6842 23.625C19.1008 23.625 18.6258 23.4667 18.2592 23.15C17.9092 22.8333 17.7342 22.4167 17.7342 21.9V8.25C17.7342 7.71667 17.9008 7.29167 18.2342 6.975C18.5842 6.64167 19.0425 6.475 19.6092 6.475C20.1758 6.475 20.6258 6.64167 20.9592 6.975C21.2925 7.29167 21.4592 7.71667 21.4592 8.25V8.45C21.8258 7.81667 22.3508 7.325 23.0342 6.975C23.7175 6.60833 24.4842 6.425 25.3342 6.425ZM24.2342 16.325C25.1175 16.325 25.8008 16.0333 26.2842 15.45C26.7675 14.85 27.0092 13.9917 27.0092 12.875C27.0092 11.7417 26.7675 10.8667 26.2842 10.25C25.8008 9.61667 25.1175 9.3 24.2342 9.3C23.3508 9.3 22.6675 9.60833 22.1842 10.225C21.7008 10.825 21.4592 11.6917 21.4592 12.825C21.4592 13.9417 21.7008 14.8083 22.1842 15.425C22.6675 16.025 23.3508 16.325 24.2342 16.325ZM34.9662 19.15C34.4162 19.15 33.9579 19 33.5912 18.7C33.2412 18.4 33.0662 17.9583 33.0662 17.375V8.25C33.0662 7.66667 33.2495 7.225 33.6162 6.925C33.9829 6.625 34.4329 6.475 34.9662 6.475C35.4995 6.475 35.9412 6.625 36.2912 6.925C36.6579 7.225 36.8412 7.66667 36.8412 8.25V17.375C36.8412 17.9583 36.6579 18.4 36.2912 18.7C35.9412 19 35.4995 19.15 34.9662 19.15ZM34.9662 4.475C34.2995 4.475 33.7745 4.30833 33.3912 3.975C33.0079 3.625 32.8162 3.15833 32.8162 2.575C32.8162 1.99167 33.0079 1.53333 33.3912 1.2C33.7745 0.866666 34.2995 0.699999 34.9662 0.699999C35.6162 0.699999 36.1329 0.874999 36.5162 1.225C36.9162 1.55833 37.1162 2.00833 37.1162 2.575C37.1162 3.15833 36.9245 3.625 36.5412 3.975C36.1579 4.30833 35.6329 4.475 34.9662 4.475ZM50.2063 1.25C50.7896 1.25 51.2563 1.40833 51.6063 1.725C51.9729 2.04167 52.1563 2.45833 52.1563 2.975V17.375C52.1563 17.9083 51.9813 18.3417 51.6313 18.675C51.2979 18.9917 50.8479 19.15 50.2813 19.15C49.7146 19.15 49.2563 18.9917 48.9063 18.675C48.5729 18.3417 48.4063 17.9083 48.4063 17.375V17.175C48.0396 17.8083 47.5146 18.3083 46.8313 18.675C46.1646 19.025 45.4063 19.2 44.5563 19.2C43.5063 19.2 42.5646 18.9333 41.7313 18.4C40.9146 17.85 40.2729 17.0917 39.8063 16.125C39.3563 15.1417 39.1313 14.0167 39.1313 12.75C39.1313 11.4833 39.3563 10.375 39.8063 9.425C40.2729 8.45833 40.9146 7.71667 41.7313 7.2C42.5479 6.68333 43.4896 6.425 44.5563 6.425C45.3896 6.425 46.1396 6.6 46.8063 6.95C47.4896 7.3 48.0146 7.79167 48.3813 8.425V2.9C48.3813 2.4 48.5479 2 48.8813 1.7C49.2146 1.4 49.6563 1.25 50.2063 1.25ZM45.6563 16.325C46.5396 16.325 47.2146 16.025 47.6813 15.425C48.1646 14.8083 48.4063 13.9333 48.4063 12.8C48.4063 11.6667 48.1646 10.8 47.6813 10.2C47.2146 9.6 46.5396 9.3 45.6563 9.3C44.7729 9.3 44.0896 9.6 43.6063 10.2C43.1229 10.7833 42.8813 11.6333 42.8813 12.75C42.8813 13.8833 43.1229 14.7667 43.6063 15.4C44.0896 16.0167 44.7729 16.325 45.6563 16.325ZM64.9133 15.35C65.2466 15.35 65.5133 15.4833 65.7133 15.75C65.9299 16.0167 66.0383 16.3583 66.0383 16.775C66.0383 17.0583 65.9549 17.325 65.7883 17.575C65.6216 17.8083 65.3883 18.0083 65.0883 18.175C64.5216 18.475 63.8633 18.725 63.1133 18.925C62.3633 19.1083 61.6716 19.2 61.0383 19.2C59.7049 19.2 58.5383 18.9417 57.5383 18.425C56.5549 17.9083 55.7966 17.175 55.2633 16.225C54.7299 15.2583 54.4633 14.125 54.4633 12.825C54.4633 11.575 54.7216 10.4667 55.2383 9.5C55.7549 8.53333 56.4716 7.78333 57.3883 7.25C58.3049 6.7 59.3466 6.425 60.5133 6.425C61.6299 6.425 62.6049 6.675 63.4383 7.175C64.2883 7.65833 64.9466 8.35833 65.4133 9.275C65.8799 10.175 66.1133 11.2333 66.1133 12.45C66.1133 12.8167 66.0216 13.1 65.8383 13.3C65.6716 13.4833 65.4299 13.575 65.1133 13.575H58.1133C58.2299 14.5583 58.5299 15.275 59.0133 15.725C59.4966 16.1583 60.1883 16.375 61.0883 16.375C61.5716 16.375 62.0049 16.3167 62.3883 16.2C62.7716 16.0833 63.1966 15.925 63.6633 15.725C63.8966 15.625 64.1216 15.5417 64.3383 15.475C64.5549 15.3917 64.7466 15.35 64.9133 15.35ZM60.6133 9.025C59.8966 9.025 59.3216 9.25833 58.8883 9.725C58.4549 10.175 58.1966 10.8333 58.1133 11.7H62.9383C62.8883 10.8167 62.6633 10.15 62.2633 9.7C61.8799 9.25 61.3299 9.025 60.6133 9.025ZM75.7184 6.475C76.2184 6.44167 76.61 6.55833 76.8934 6.825C77.1934 7.075 77.3434 7.45833 77.3434 7.975C77.3434 8.525 77.21 8.93333 76.9434 9.2C76.6767 9.46667 76.2017 9.63333 75.5184 9.7L74.7684 9.775C73.8517 9.875 73.185 10.175 72.7684 10.675C72.3684 11.175 72.1684 11.8167 72.1684 12.6V17.375C72.1684 17.9583 71.985 18.4 71.6184 18.7C71.2684 19 70.8267 19.15 70.2934 19.15C69.7434 19.15 69.285 19 68.9184 18.7C68.5684 18.4 68.3934 17.9583 68.3934 17.375V8.2C68.3934 7.65 68.5767 7.225 68.9434 6.925C69.31 6.625 69.7517 6.475 70.2684 6.475C70.7684 6.475 71.185 6.625 71.5184 6.925C71.8517 7.20833 72.0184 7.60833 72.0184 8.125V8.8C72.3184 8.08333 72.7684 7.53333 73.3684 7.15C73.985 6.76667 74.6517 6.55 75.3684 6.5L75.7184 6.475ZM85.0775 19.225C83.7609 19.225 82.5359 19.075 81.4025 18.775C80.2692 18.4583 79.3442 18.0167 78.6275 17.45C78.3775 17.2667 78.1942 17.075 78.0775 16.875C77.9775 16.6583 77.9275 16.3917 77.9275 16.075C77.9275 15.6583 78.0525 15.2917 78.3025 14.975C78.5692 14.6583 78.8692 14.5 79.2025 14.5C79.3859 14.5 79.5609 14.5333 79.7275 14.6C79.9109 14.65 80.1275 14.75 80.3775 14.9C81.0942 15.35 81.8192 15.6833 82.5525 15.9C83.2859 16.1 84.0942 16.2 84.9775 16.2C86.0775 16.2 86.9192 16.0167 87.5025 15.65C88.0859 15.2833 88.3775 14.7583 88.3775 14.075C88.3775 13.5583 88.1025 13.1417 87.5525 12.825C87.0192 12.5083 86.0609 12.2083 84.6775 11.925C83.1275 11.6083 81.8859 11.225 80.9525 10.775C80.0359 10.325 79.3609 9.76667 78.9275 9.1C78.5109 8.43333 78.3025 7.625 78.3025 6.675C78.3025 5.625 78.6025 4.68333 79.2025 3.85C79.8192 3 80.6609 2.34167 81.7275 1.875C82.8109 1.39167 84.0275 1.15 85.3775 1.15C87.7442 1.15 89.6942 1.74167 91.2275 2.925C91.4775 3.125 91.6525 3.33333 91.7525 3.55C91.8692 3.75 91.9275 4 91.9275 4.3C91.9275 4.71667 91.7942 5.08333 91.5275 5.4C91.2775 5.71667 90.9859 5.875 90.6525 5.875C90.4692 5.875 90.2942 5.85 90.1275 5.8C89.9775 5.75 89.7609 5.64167 89.4775 5.475C88.7942 5.04167 88.1609 4.71667 87.5775 4.5C87.0109 4.28333 86.2859 4.175 85.4025 4.175C84.3859 4.175 83.5859 4.375 83.0025 4.775C82.4192 5.15833 82.1275 5.69167 82.1275 6.375C82.1275 6.775 82.2359 7.10833 82.4525 7.375C82.6859 7.625 83.0609 7.85 83.5775 8.05C84.1109 8.25 84.8609 8.45833 85.8275 8.675C88.0942 9.175 89.7192 9.81667 90.7025 10.6C91.7025 11.3833 92.2025 12.4583 92.2025 13.825C92.2025 14.8917 91.9025 15.8333 91.3025 16.65C90.7192 17.4667 89.8859 18.1 88.8025 18.55C87.7359 19 86.4942 19.225 85.0775 19.225ZM102.487 6.425C105.337 6.425 106.762 8.15 106.762 11.6V17.375C106.762 17.925 106.587 18.3583 106.237 18.675C105.903 18.9917 105.445 19.15 104.862 19.15C104.278 19.15 103.82 18.9917 103.487 18.675C103.153 18.3583 102.987 17.925 102.987 17.375V11.55C102.987 10.8167 102.828 10.275 102.512 9.925C102.212 9.55833 101.737 9.375 101.087 9.375C100.303 9.375 99.6701 9.625 99.1867 10.125C98.7201 10.625 98.4867 11.2917 98.4867 12.125V17.375C98.4867 17.925 98.3201 18.3583 97.9867 18.675C97.6534 18.9917 97.1951 19.15 96.6117 19.15C96.0284 19.15 95.5617 18.9917 95.2117 18.675C94.8784 18.3583 94.7117 17.925 94.7117 17.375V2.975C94.7117 2.45833 94.8867 2.04167 95.2367 1.725C95.6034 1.40833 96.0784 1.25 96.6617 1.25C97.2117 1.25 97.6534 1.4 97.9867 1.7C98.3201 2 98.4867 2.4 98.4867 2.9V8.35C98.9201 7.71667 99.4784 7.24167 100.162 6.925C100.845 6.59167 101.62 6.425 102.487 6.425ZM111.48 19.15C110.93 19.15 110.472 19 110.105 18.7C109.755 18.4 109.58 17.9583 109.58 17.375V8.25C109.58 7.66667 109.763 7.225 110.13 6.925C110.497 6.625 110.947 6.475 111.48 6.475C112.013 6.475 112.455 6.625 112.805 6.925C113.172 7.225 113.355 7.66667 113.355 8.25V17.375C113.355 17.9583 113.172 18.4 112.805 18.7C112.455 19 112.013 19.15 111.48 19.15ZM111.48 4.475C110.813 4.475 110.288 4.30833 109.905 3.975C109.522 3.625 109.33 3.15833 109.33 2.575C109.33 1.99167 109.522 1.53333 109.905 1.2C110.288 0.866666 110.813 0.699999 111.48 0.699999C112.13 0.699999 112.647 0.874999 113.03 1.225C113.43 1.55833 113.63 2.00833 113.63 2.575C113.63 3.15833 113.438 3.625 113.055 3.975C112.672 4.30833 112.147 4.475 111.48 4.475ZM123.845 6.425C124.912 6.425 125.853 6.68333 126.67 7.2C127.487 7.71667 128.12 8.45833 128.57 9.425C129.037 10.375 129.27 11.4833 129.27 12.75C129.27 14.0167 129.037 15.1417 128.57 16.125C128.12 17.0917 127.478 17.85 126.645 18.4C125.828 18.9333 124.895 19.2 123.845 19.2C122.995 19.2 122.228 19.025 121.545 18.675C120.862 18.3083 120.337 17.8083 119.97 17.175V17.375C119.97 17.9083 119.803 18.3417 119.47 18.675C119.137 18.9917 118.687 19.15 118.12 19.15C117.553 19.15 117.095 18.9917 116.745 18.675C116.412 18.3417 116.245 17.9083 116.245 17.375V2.975C116.245 2.45833 116.42 2.04167 116.77 1.725C117.137 1.40833 117.612 1.25 118.195 1.25C118.745 1.25 119.187 1.4 119.52 1.7C119.853 2 120.02 2.4 120.02 2.9V8.375C120.387 7.75833 120.903 7.28333 121.57 6.95C122.253 6.6 123.012 6.425 123.845 6.425ZM122.745 16.325C123.628 16.325 124.312 16.0167 124.795 15.4C125.278 14.7667 125.52 13.8833 125.52 12.75C125.52 11.6333 125.278 10.7833 124.795 10.2C124.312 9.6 123.628 9.3 122.745 9.3C121.862 9.3 121.178 9.60833 120.695 10.225C120.212 10.825 119.97 11.6833 119.97 12.8C119.97 13.9333 120.212 14.8083 120.695 15.425C121.178 16.025 121.862 16.325 122.745 16.325ZM137.102 6.425C138.902 6.425 140.235 6.86667 141.102 7.75C141.969 8.61667 142.402 9.95 142.402 11.75V17.4C142.402 17.95 142.244 18.3833 141.927 18.7C141.61 19 141.169 19.15 140.602 19.15C140.069 19.15 139.635 18.9917 139.302 18.675C138.985 18.3417 138.827 17.9167 138.827 17.4V17.225C138.577 17.8417 138.16 18.325 137.577 18.675C136.994 19.025 136.31 19.2 135.527 19.2C134.694 19.2 133.935 19.0333 133.252 18.7C132.585 18.3667 132.052 17.9 131.652 17.3C131.269 16.7 131.077 16.0333 131.077 15.3C131.077 14.4 131.302 13.6917 131.752 13.175C132.219 12.6583 132.96 12.2833 133.977 12.05C134.994 11.8167 136.385 11.7 138.152 11.7H138.802V11.25C138.802 10.55 138.644 10.0417 138.327 9.725C138.027 9.40833 137.519 9.25 136.802 9.25C136.085 9.25 135.052 9.5 133.702 10C133.319 10.1833 132.994 10.275 132.727 10.275C132.36 10.275 132.069 10.15 131.852 9.9C131.635 9.63333 131.527 9.29167 131.527 8.875C131.527 8.54167 131.602 8.26667 131.752 8.05C131.902 7.83333 132.144 7.63333 132.477 7.45C133.06 7.13333 133.769 6.88333 134.602 6.7C135.452 6.51667 136.285 6.425 137.102 6.425ZM136.352 16.6C137.085 16.6 137.677 16.3583 138.127 15.875C138.577 15.375 138.802 14.7333 138.802 13.95V13.525H138.377C137.027 13.525 136.077 13.6333 135.527 13.85C134.994 14.0667 134.727 14.4583 134.727 15.025C134.727 15.4917 134.877 15.875 135.177 16.175C135.494 16.4583 135.885 16.6 136.352 16.6Z" fill="white"/>
<path d="M154.457 19.15C153.857 19.15 153.382 18.975 153.032 18.625C152.682 18.275 152.507 17.8 152.507 17.2V3.175C152.507 2.59167 152.682 2.125 153.032 1.775C153.382 1.425 153.857 1.25 154.457 1.25C155.057 1.25 155.532 1.425 155.882 1.775C156.232 2.125 156.407 2.59167 156.407 3.175V17.2C156.407 17.8 156.232 18.275 155.882 18.625C155.532 18.975 155.057 19.15 154.457 19.15ZM167.304 6.425C168.771 6.425 169.863 6.85833 170.579 7.725C171.296 8.575 171.654 9.86667 171.654 11.6V17.375C171.654 17.925 171.479 18.3583 171.129 18.675C170.796 18.9917 170.338 19.15 169.754 19.15C169.171 19.15 168.713 18.9917 168.379 18.675C168.046 18.3583 167.879 17.925 167.879 17.375V11.775C167.879 10.9417 167.721 10.3333 167.404 9.95C167.104 9.56667 166.629 9.375 165.979 9.375C165.196 9.375 164.563 9.625 164.079 10.125C163.613 10.625 163.379 11.2917 163.379 12.125V17.375C163.379 17.925 163.213 18.3583 162.879 18.675C162.546 18.9917 162.088 19.15 161.504 19.15C160.921 19.15 160.454 18.9917 160.104 18.675C159.771 18.3583 159.604 17.925 159.604 17.375V8.2C159.604 7.68333 159.779 7.26667 160.129 6.95C160.496 6.63333 160.963 6.475 161.529 6.475C162.046 6.475 162.463 6.63333 162.779 6.95C163.113 7.25 163.279 7.64167 163.279 8.125V8.475C163.713 7.80833 164.271 7.3 164.954 6.95C165.654 6.6 166.438 6.425 167.304 6.425ZM184.397 6.475C184.981 6.475 185.439 6.63333 185.772 6.95C186.122 7.26667 186.297 7.7 186.297 8.25V17.425C186.297 17.9417 186.114 18.3583 185.747 18.675C185.397 18.9917 184.939 19.15 184.372 19.15C183.839 19.15 183.414 19 183.097 18.7C182.781 18.4 182.622 18 182.622 17.5V17.25C182.239 17.8833 181.731 18.3667 181.097 18.7C180.481 19.0333 179.781 19.2 178.997 19.2C177.447 19.2 176.289 18.775 175.522 17.925C174.772 17.0583 174.397 15.7583 174.397 14.025V8.25C174.397 7.7 174.564 7.26667 174.897 6.95C175.247 6.63333 175.714 6.475 176.297 6.475C176.881 6.475 177.339 6.63333 177.672 6.95C178.006 7.26667 178.172 7.7 178.172 8.25V14.1C178.172 14.8333 178.322 15.375 178.622 15.725C178.939 16.075 179.414 16.25 180.047 16.25C180.781 16.25 181.372 16 181.822 15.5C182.289 15 182.522 14.3417 182.522 13.525V8.25C182.522 7.7 182.689 7.26667 183.022 6.95C183.356 6.63333 183.814 6.475 184.397 6.475Z" fill="#E11D2E"/>
</svg>
