<svg width="50" height="50" viewBox="0 0 50 50" fill="none" xmlns="http://www.w3.org/2000/svg">
<rect width="50" height="50" rx="15" fill="#E22F2F"/>
<g opacity="0.300003">
<g opacity="0.300003">
<path opacity="0.300003" d="M42 39.6064C42 40.1625 34.165 40.6133 24.5 40.6133C14.835 40.6133 7 40.1625 7 39.6064C7 39.0503 14.835 38.5995 24.5 38.5995C34.165 38.5995 42 39.0503 42 39.6064Z" fill="#000072"/>
</g>
</g>
<path d="M39.2299 38.3462C38.5354 39.0684 37.5166 39.4746 36.4527 39.4746H12.5458C11.4819 39.4746 10.463 39.0684 9.76853 38.3462C9.38485 37.947 9.1012 37.5024 8.91043 37.0474C8.90971 37.0474 8.90971 37.0474 8.90971 37.0468C8.30954 35.6192 8.61534 34.0871 9.57276 33.536C11.1804 32.6095 12.42 33.7417 12.42 33.7417C12.5572 33.4527 12.743 33.2022 12.9509 32.9876C13.734 32.1764 14.8314 31.8675 14.8314 31.8675C14.2348 28.7989 15.5666 26.0187 15.5666 26.0187C15.5666 26.0187 18.8483 28.2427 24.4992 28.2427C30.1501 28.2427 33.4318 26.0187 33.4318 26.0187C33.4318 26.0187 34.7636 28.7989 34.167 31.8675C34.167 31.8675 35.924 32.3622 36.5784 33.7417C36.5784 33.7417 37.8181 32.6095 39.4257 33.536C40.6882 34.2633 40.8175 36.6963 39.2299 38.3462Z" fill="#B11313"/>
<g opacity="0.300003">
<g opacity="0.300003">
<path opacity="0.300003" d="M13.377 36.5703C13.5985 34.6474 12.4238 33.8176 12.4238 33.8176C12.561 33.5286 12.7468 33.2781 12.9547 33.0634C14.7767 35.0177 13.377 36.5703 13.377 36.5703Z" fill="#000072"/>
</g>
</g>
<g opacity="0.300003">
<g opacity="0.300003">
<path opacity="0.300003" d="M35.6347 36.5703C35.4132 34.6474 36.5878 33.8176 36.5878 33.8176C36.4506 33.5286 36.2649 33.2781 36.057 33.0634C34.235 35.0177 35.6347 36.5703 35.6347 36.5703Z" fill="#000072"/>
</g>
</g>
<g opacity="0.300003">
<g opacity="0.300003">
<path opacity="0.300003" d="M35.8213 38.1848C35.651 38.1468 35.4755 38.1337 35.3012 38.1509C35.0527 38.1753 34.6252 38.2133 33.9982 38.2554C33.0545 38.3189 32.2303 37.6829 32.1659 36.8362C32.1382 36.4724 32.1989 36.19 32.2209 36.1026C31.9745 37.0474 31.5194 37.9178 31.242 38.3951C29.8335 38.4478 28.0495 38.4906 25.8434 38.5032C25.7244 34.6804 28.2007 31.096 28.2007 31.096C24.4065 33.8179 20.8108 31.096 20.8108 31.096C23.3144 35.0811 23.1841 38.3372 23.1841 38.3372L23.6057 38.5053C21.1966 38.4962 19.2699 38.4512 17.7695 38.3952C17.492 37.9178 17.037 37.0474 16.7905 36.1026C16.8134 36.1935 16.8781 36.4954 16.8417 36.8804C16.7634 37.709 15.9385 38.3177 15.0139 38.2555C14.3865 38.2133 13.9588 38.1754 13.7103 38.1509C13.5359 38.1337 13.3604 38.1468 13.1902 38.1848C10.47 38.7921 8.96259 37.177 8.91406 37.1236C9.10483 37.5785 9.38848 38.0232 9.77217 38.4224C10.4667 39.1445 11.4855 39.5508 12.5494 39.5508H24.5057H36.462C37.5259 39.5508 38.5448 39.1445 39.2393 38.4224C39.6229 38.0232 39.9066 37.5785 40.0974 37.1236C40.0488 37.177 38.5415 38.7921 35.8213 38.1848Z" fill="#000072"/>
</g>
</g>
<g opacity="0.300003">
<g opacity="0.300003">
<path opacity="0.300003" d="M16.785 36.1016C16.7803 36.0829 16.7773 36.0727 16.7773 36.0727C16.7798 36.0824 16.7825 36.0919 16.785 36.1016Z" fill="#000072"/>
</g>
</g>
<g opacity="0.300003">
<g opacity="0.300003">
<path opacity="0.300003" d="M32.2207 36.1016C32.2232 36.0919 32.2259 36.0824 32.2283 36.0727C32.2283 36.0727 32.2254 36.0829 32.2207 36.1016Z" fill="#000072"/>
</g>
</g>
<path d="M24.4962 39.3272H36.4526C37.4556 39.3272 38.3995 38.9441 39.0424 38.276C39.873 37.4128 40.2825 36.2176 40.1113 35.1566C40.011 34.5355 39.7124 34.0401 39.2919 33.7977C37.8701 32.978 36.7997 33.9316 36.7548 33.9725C36.6969 34.0254 36.6134 34.0491 36.532 34.0351C36.4508 34.0213 36.3825 33.972 36.3502 33.9038C35.7473 32.6329 34.109 32.1592 34.0925 32.1546C33.974 32.1212 33.9013 32.0142 33.9227 31.9045C34.3971 29.4659 33.6134 27.1843 33.3133 26.4367C32.4148 26.9635 29.3231 28.5399 24.4991 28.5399C19.6751 28.5399 16.5833 26.9635 15.6849 26.4367C15.3848 27.1843 14.601 29.4659 15.0755 31.9045C15.0968 32.0142 15.0242 32.1212 14.9056 32.1546C14.8894 32.1592 13.2484 32.6379 12.648 33.9038C12.6156 33.972 12.5474 34.0213 12.4661 34.0351C12.3849 34.049 12.3013 34.0254 12.2433 33.9725C12.1986 33.9322 11.119 32.9832 9.70625 33.7977C9.28579 34.0401 8.98712 34.5355 8.88689 35.1566C8.71567 36.2176 9.1252 37.4129 9.95573 38.276C10.5986 38.9441 11.5426 39.3272 12.5456 39.3272H24.4962ZM36.4526 39.7715H12.5456C11.3984 39.7715 10.3178 39.3322 9.58069 38.5662C8.65915 37.6085 8.20543 36.2776 8.39662 35.093C8.51918 34.3334 8.88916 33.7406 9.43839 33.424C10.7455 32.6705 11.8484 33.1626 12.3331 33.4691C12.9478 32.4597 14.0884 31.9646 14.5539 31.7974C14.0355 28.7744 15.2844 26.1194 15.3388 26.0057C15.3689 25.9429 15.4294 25.8961 15.503 25.8787C15.5767 25.8612 15.6551 25.875 15.7158 25.9162C15.7479 25.9378 19.0067 28.0956 24.4991 28.0956C29.9915 28.0956 33.2503 25.9378 33.2826 25.916C33.3434 25.875 33.4219 25.8612 33.4953 25.8787C33.5688 25.8963 33.6293 25.943 33.6593 26.0057C33.7138 26.1194 34.9626 28.7744 34.4442 31.7974C34.9098 31.9646 36.0504 32.4597 36.6651 33.4691C37.1497 33.1626 38.2525 32.6703 39.5598 33.424C40.109 33.7406 40.479 34.3333 40.6016 35.093C40.7928 36.2776 40.339 37.6085 39.4175 38.5662C38.6804 39.3322 37.5997 39.7715 36.4526 39.7715" fill="#000072"/>
<path d="M12.5599 33.6363C12.5871 33.6529 12.5998 33.6621 12.6185 33.6745C12.6362 33.6863 12.6506 33.6975 12.6668 33.7092C12.6989 33.7325 12.7261 33.7571 12.7553 33.7813C12.7851 33.8051 12.8097 33.8314 12.8365 33.8568C12.8635 33.8821 12.8888 33.9082 12.9125 33.9351C13.0112 34.0412 13.0942 34.1555 13.1682 34.2736C13.3165 34.5097 13.415 34.7643 13.4835 35.0206C13.5503 35.2781 13.575 35.5394 13.575 35.7975C13.5755 35.9264 13.5595 36.055 13.5497 36.1821C13.5283 36.3091 13.505 36.435 13.4754 36.5591C13.4697 36.5828 13.4437 36.5978 13.4173 36.5928C13.3973 36.5889 13.3827 36.5745 13.3794 36.5575L13.3788 36.5544C13.3545 36.4297 13.3394 36.3068 13.3212 36.185L13.2857 36.0037C13.2727 35.9438 13.2678 35.8832 13.2501 35.8244C13.2168 35.7067 13.199 35.5877 13.157 35.474C13.1387 35.4167 13.1243 35.3587 13.1044 35.3024L13.0405 35.1352C12.9524 34.9146 12.8448 34.7036 12.7151 34.5086C12.6813 34.4608 12.6497 34.4114 12.613 34.3661L12.56 34.2966L12.5031 34.2306C12.467 34.1851 12.4252 34.1451 12.386 34.104C12.3658 34.0845 12.3458 34.0633 12.3254 34.046C12.3156 34.0371 12.3052 34.0265 12.2959 34.0188C12.2877 34.0116 12.2742 34.0003 12.2733 33.9986L12.2198 33.9023C12.1624 33.7989 12.2093 33.6734 12.3246 33.6219C12.4027 33.587 12.4925 33.5953 12.5599 33.6363Z" fill="#000072"/>
<path d="M36.7139 33.9986C36.7129 34.0003 36.6994 34.0116 36.6912 34.0188C36.682 34.0265 36.6715 34.0371 36.6617 34.046C36.6413 34.0634 36.6213 34.0845 36.6011 34.104C36.5619 34.1451 36.5201 34.1851 36.484 34.2306L36.4272 34.2966L36.3741 34.3661C36.3374 34.4114 36.3058 34.4608 36.272 34.5086C36.1423 34.7037 36.0347 34.9146 35.9466 35.1352L35.8827 35.3024C35.8628 35.3587 35.8485 35.4167 35.8302 35.474C35.7882 35.5877 35.7703 35.7067 35.7371 35.8244C35.7193 35.8833 35.7144 35.9438 35.7015 36.0037L35.666 36.185C35.6477 36.3068 35.6326 36.4297 35.6083 36.5544L35.6077 36.5574C35.6031 36.5813 35.5778 36.5973 35.5512 36.5931C35.5309 36.5899 35.5158 36.576 35.5117 36.5591C35.4821 36.435 35.4588 36.3091 35.4374 36.1821C35.4277 36.055 35.4116 35.9265 35.4121 35.7975C35.4122 35.5394 35.4368 35.2781 35.5036 35.0207C35.5721 34.7643 35.6706 34.5097 35.8189 34.2736C35.8929 34.1555 35.9759 34.0412 36.0746 33.9351C36.0983 33.9082 36.1237 33.8821 36.1506 33.8568C36.1774 33.8314 36.202 33.8051 36.2318 33.7813C36.261 33.7571 36.2882 33.7325 36.3204 33.7092C36.3366 33.6975 36.3509 33.6863 36.3686 33.6745C36.3874 33.6621 36.4 33.6529 36.4272 33.6363C36.5337 33.5712 36.6787 33.5959 36.7513 33.6914C36.8004 33.756 36.8036 33.8366 36.7675 33.9021L36.7139 33.9986Z" fill="#000072"/>
<path d="M15.079 31.9171L15.0991 32.0946L15.1244 32.2932C15.1332 32.3608 15.1451 32.4287 15.1516 32.4999C15.1588 32.5709 15.1631 32.6446 15.1591 32.7241L15.1591 32.7245C15.1585 32.737 15.1467 32.7466 15.1327 32.7461C15.1277 32.7459 15.1231 32.7444 15.1193 32.7419C15.0466 32.696 14.9839 32.6433 14.9297 32.5858C14.8742 32.5288 14.8288 32.4665 14.7845 32.4027C14.7412 32.3385 14.7018 32.2717 14.6675 32.2018C14.6514 32.1665 14.6346 32.131 14.6216 32.0936C14.6146 32.0751 14.6083 32.056 14.6026 32.0364C14.5965 32.0153 14.5924 31.9998 14.5871 31.9699C14.5656 31.8487 14.6578 31.7347 14.793 31.7155C14.9281 31.6962 15.0552 31.7789 15.0766 31.9001C15.0773 31.904 15.0779 31.9079 15.0783 31.9117L15.079 31.9171Z" fill="#000072"/>
<path d="M34.4173 31.9699C34.412 31.9998 34.4079 32.0153 34.4018 32.0364C34.3961 32.056 34.3898 32.0751 34.3828 32.0936C34.3698 32.131 34.3531 32.1665 34.3369 32.2018C34.3026 32.2717 34.2632 32.3385 34.2199 32.4027C34.1756 32.4665 34.1302 32.5288 34.0747 32.5858C34.0205 32.6433 33.9579 32.696 33.8851 32.7419C33.8737 32.7492 33.8579 32.7467 33.8499 32.7365C33.847 32.7328 33.8455 32.7286 33.8453 32.7244L33.8453 32.7241C33.8413 32.6446 33.8456 32.571 33.8529 32.4999C33.8594 32.4287 33.8712 32.3608 33.8801 32.2932L33.9053 32.0946L33.9255 31.9171L33.926 31.9125C33.9399 31.7903 34.0615 31.7014 34.1977 31.7139C34.3339 31.7263 34.433 31.8354 34.4191 31.9575C34.4187 31.9615 34.418 31.9661 34.4173 31.9699Z" fill="#000072"/>
<path d="M16.2775 34.1194C16.2775 34.1194 15.1436 33.3308 14.8297 31.944C14.8297 31.944 14.1774 31.6484 13.7266 32.4484C13.7266 32.4484 14.2466 34.8907 16.7774 36.0742C16.7774 36.0742 16.4117 34.8169 16.2775 34.1194" fill="#0096F2"/>
<path d="M13.9883 32.4807C14.0904 32.8537 14.6404 34.5566 16.3909 35.6111C16.2801 35.208 16.1333 34.651 16.0492 34.2387C15.7866 34.0347 14.9319 33.2964 14.6179 32.1159C14.4754 32.0939 14.2187 32.1196 13.9883 32.4807ZM16.777 36.2969C16.7379 36.2969 16.6986 36.2886 16.6625 36.2717C14.0555 35.0525 13.5051 32.5946 13.4829 32.4906C13.4727 32.4424 13.4805 32.3925 13.5052 32.3487C13.7868 31.849 14.155 31.7074 14.4143 31.6766C14.7013 31.6422 14.9174 31.7356 14.9411 31.7463C15.0088 31.777 15.0571 31.8338 15.0721 31.9004C15.3628 33.1846 16.4187 33.9372 16.4293 33.9446C16.4777 33.9786 16.5108 34.0278 16.5212 34.0822C16.6521 34.7624 17.0131 36.0062 17.0167 36.0187C17.0414 36.1036 17.0079 36.1938 16.9313 36.2485C16.8866 36.2805 16.832 36.2969 16.777 36.2969" fill="#000072"/>
<path d="M32.7264 34.1194C32.7264 34.1194 33.8603 33.3308 34.1742 31.944C34.1742 31.944 34.8265 31.6484 35.2774 32.4484C35.2774 32.4484 34.7573 34.8907 32.2266 36.0742C32.2266 36.0742 32.5923 34.8169 32.7264 34.1194" fill="#0096F2"/>
<path d="M32.9521 34.2387C32.8679 34.6511 32.7211 35.208 32.6103 35.6111C34.3608 34.5567 34.9108 32.8539 35.013 32.4807C34.8735 32.2614 34.7085 32.1391 34.5218 32.117C34.4695 32.1107 34.4215 32.1133 34.3825 32.1189C34.0679 33.2977 33.2145 34.0348 32.9521 34.2387ZM32.2243 36.2969C32.1693 36.2969 32.1147 36.2805 32.07 36.2485C31.9933 36.1938 31.9599 36.1036 31.9846 36.0187C31.9882 36.0062 32.3492 34.7624 32.48 34.0822C32.4905 34.0276 32.5233 33.9786 32.572 33.9446C32.5826 33.9372 33.6385 33.1846 33.9291 31.9004C33.9442 31.8338 33.9925 31.777 34.0602 31.7464C34.0838 31.7356 34.2999 31.6422 34.5869 31.6766C34.8462 31.7074 35.2145 31.849 35.4961 32.3487C35.5208 32.3926 35.5286 32.4424 35.5184 32.4906C35.4962 32.5946 34.9458 35.0525 32.3388 36.2717C32.3027 36.2885 32.2634 36.2969 32.2243 36.2969" fill="#000072"/>
<path d="M19.6953 28.4453C19.6953 28.4453 20.121 29.5276 19.9985 31.1066L21.4013 32.2012C21.4013 32.2012 21.7678 30.2935 21.1435 28.7091L19.6953 28.4453Z" fill="#0096F2"/>
<path d="M20.2491 31.0096L21.2083 31.7581C21.2732 31.1493 21.3286 29.9558 20.95 28.8999L20.039 28.7339C20.1568 29.1733 20.3139 29.9815 20.2491 31.0096ZM21.3969 32.4219C21.3381 32.4219 21.2801 32.403 21.2343 32.3673L19.8316 31.2728C19.773 31.227 19.7417 31.1593 19.7471 31.0898C19.8642 29.5809 19.4614 28.528 19.4573 28.5176C19.4278 28.4422 19.4458 28.3582 19.5044 28.298C19.563 28.2379 19.6532 28.2107 19.7403 28.2262L21.1884 28.49C21.2737 28.5055 21.3437 28.5601 21.3726 28.6336C22.0112 30.2541 21.6564 32.1573 21.641 32.2375C21.6258 32.3165 21.5643 32.3821 21.48 32.409C21.4529 32.4176 21.4248 32.4219 21.3969 32.4219" fill="#000072"/>
<path d="M29.307 28.4453C29.307 28.4453 28.8813 29.5276 29.0038 31.1066L27.6011 32.2012C27.6011 32.2012 27.2345 30.2935 27.8588 28.7091L29.307 28.4453Z" fill="#0096F2"/>
<path d="M28.0492 28.8999C27.6699 29.9577 27.7254 31.1502 27.7906 31.7583L28.7501 31.0096C28.6853 29.9815 28.8424 29.1733 28.9601 28.7339L28.0492 28.8999ZM27.6023 32.4219C27.5744 32.4219 27.5463 32.4176 27.5192 32.409C27.4349 32.3821 27.3734 32.3165 27.3582 32.2375C27.3428 32.1573 26.988 30.2541 27.6265 28.6336C27.6555 28.5601 27.7255 28.5055 27.8108 28.49L29.2589 28.2262C29.3463 28.2101 29.4366 28.2378 29.4951 28.2981C29.5536 28.3584 29.5714 28.4423 29.5419 28.5177C29.5354 28.5343 29.1354 29.5855 29.2521 31.0898C29.2575 31.1593 29.2262 31.227 29.1676 31.2728L27.7649 32.3673C27.7191 32.403 27.6611 32.4219 27.6023 32.4219" fill="#000072"/>
<path d="M23.1011 38.8559C22.7481 40.4104 20.7361 41.1216 19.3221 40.1688C18.2154 39.4236 17 37.7192 16.2491 33.9816C16.1776 33.6234 16.1098 33.246 16.0469 32.8494L16.5249 32.4431L19.6936 29.7481C19.6936 29.7481 22.8153 34.0822 23.1611 37.4045V37.4052C23.2154 37.9197 23.2025 38.4099 23.1011 38.8559Z" fill="#B11313"/>
<g opacity="0.300003">
<g opacity="0.300003">
<path opacity="0.300003" d="M23.1002 38.8559C22.7472 40.4104 20.7352 41.1216 19.3212 40.1688C18.2145 39.4236 16.9991 37.7192 16.2482 33.9816C15.1915 33.4107 14.8285 31.9427 14.8285 31.9427C14.3726 29.9935 14.8985 28.1968 14.8985 28.1968C14.7984 30.5694 15.8485 31.7011 16.2816 32.0644C16.4023 32.1657 16.4866 32.2962 16.5234 32.4407C16.5236 32.4415 16.5238 32.4423 16.524 32.4431C17.2978 35.5137 18.5939 39.2544 20.4744 39.5223C22.2899 39.7805 23.0723 37.6596 23.1602 37.4052C23.2145 37.9197 23.2016 38.4099 23.1002 38.8559Z" fill="#000072"/>
</g>
</g>
<path d="M19.9664 29.5415C20.3272 29.8939 20.6125 30.287 20.8712 30.6931C20.9996 30.8966 21.1167 31.1055 21.233 31.3146C21.3494 31.5237 21.4633 31.734 21.5744 31.9456C22.0191 32.7915 22.424 33.6566 22.7603 34.5479C23.097 35.4382 23.3681 36.3581 23.4669 37.3158C23.5145 37.7939 23.5174 38.2831 23.4268 38.7729C23.4072 38.8931 23.3785 39.0222 23.3344 39.1464C23.2944 39.2715 23.2377 39.3923 23.1762 39.5106C23.048 39.7454 22.8771 39.9618 22.6733 40.1491C22.2616 40.5198 21.7175 40.7699 21.1399 40.8433C20.8518 40.8837 20.5559 40.8749 20.2688 40.8293C19.9819 40.7804 19.7049 40.688 19.4516 40.5608C19.3277 40.4951 19.203 40.4229 19.0953 40.3433L18.9339 40.2245C18.8793 40.1854 18.8325 40.1401 18.7816 40.0982C18.7324 40.0549 18.6801 40.0138 18.6337 39.9685L18.4956 39.8321C18.4002 39.7431 18.3212 39.6443 18.2356 39.5494C17.9049 39.1627 17.6412 38.7422 17.4097 38.3134C17.1744 37.885 16.9945 37.4395 16.8203 36.9942C16.6586 36.5455 16.5113 36.0937 16.3902 35.6373C16.3303 35.4091 16.266 35.1816 16.2171 34.9516C16.1668 34.722 16.1065 34.4938 16.0699 34.2622C15.9889 33.8001 15.9509 33.3317 15.9955 32.8566C15.998 32.8297 16.0243 32.8098 16.0543 32.812C16.0751 32.8136 16.0923 32.8256 16.0999 32.8418L16.1005 32.8432C16.2035 33.064 16.2814 33.2868 16.3486 33.5107C16.4147 33.7349 16.4833 33.9576 16.5352 34.183C16.5849 34.409 16.6432 34.6327 16.698 34.8572C16.75 35.0825 16.8171 35.3038 16.8797 35.5263C17.0063 35.9709 17.1577 36.408 17.3219 36.8399C17.498 37.2668 17.6789 37.6932 17.9089 38.0944C18.1342 38.4972 18.3912 38.8837 18.6932 39.2318C18.7712 39.3165 18.8436 39.4065 18.9289 39.484L19.0525 39.6044C19.0938 39.6444 19.1398 39.6791 19.1831 39.7169C19.2278 39.7529 19.2692 39.7931 19.3164 39.8259L19.4558 39.9268C19.5483 39.9943 19.6427 40.0466 19.7413 40.0988C19.9404 40.1965 20.1549 40.2661 20.3766 40.3025C20.5986 40.3355 20.827 40.3417 21.0501 40.3082C21.4978 40.2489 21.919 40.0492 22.2354 39.7618C22.393 39.6173 22.5253 39.4509 22.6253 39.2694C22.6727 39.1775 22.7179 39.0842 22.749 38.9861C22.7839 38.8893 22.8063 38.7903 22.8243 38.6811C22.9046 38.2551 22.9054 37.8089 22.8621 37.364C22.8182 36.9184 22.73 36.4724 22.6158 36.0303C22.5023 35.5878 22.3604 35.149 22.2025 34.7143C21.886 33.8445 21.4992 32.9916 21.0716 32.1553C20.9648 31.946 20.8551 31.738 20.7431 31.5309C20.6315 31.3235 20.5141 31.1188 20.4053 30.91C20.1856 30.4935 19.9787 30.0701 19.8154 29.6225L19.8149 29.621C19.7995 29.5787 19.8252 29.5332 19.8723 29.5194C19.9069 29.5093 19.9433 29.519 19.9664 29.5415Z" fill="#000072"/>
<path d="M16.9431 36.793C16.8764 36.793 16.8098 36.769 16.761 36.7216C16.6683 36.6315 16.6744 36.4911 16.7748 36.4079C16.8667 36.3317 19.0637 34.5393 22.4275 34.3138C22.5635 34.3039 22.6827 34.3964 22.6929 34.5187C22.7031 34.641 22.6008 34.7477 22.4644 34.7568C19.2791 34.9704 17.1323 36.7166 17.111 36.7341C17.0634 36.7735 17.0031 36.793 16.9431 36.793Z" fill="#000072"/>
<path d="M25.9002 38.8578C26.2532 40.4123 28.2652 41.1236 29.6792 40.1707C30.786 39.4255 32.0013 37.7211 32.7522 33.9836C32.8237 33.6254 32.8916 33.248 32.9544 32.8513L32.4764 32.4451L29.3077 29.75C29.3077 29.75 26.186 34.0842 25.8402 37.4065V37.4071C25.7859 37.9217 25.7988 38.4119 25.9002 38.8578Z" fill="#B11313"/>
<g opacity="0.300003">
<g opacity="0.300003">
<path opacity="0.300003" d="M25.8924 38.8559C26.2454 40.4104 28.2574 41.1216 29.6714 40.1688C30.7781 39.4236 31.9935 37.7192 32.7444 33.9816C33.8012 33.4107 34.1641 31.9427 34.1641 31.9427C34.62 29.9935 34.0941 28.1968 34.0941 28.1968C34.1942 30.5694 33.1441 31.7011 32.711 32.0644C32.5904 32.1657 32.506 32.2962 32.4693 32.4407C32.469 32.4415 32.4688 32.4423 32.4686 32.4431C31.6948 35.5137 30.3987 39.2544 28.5182 39.5223C26.7027 39.7805 25.9203 37.6596 25.8324 37.4052C25.7781 37.9197 25.791 38.4099 25.8924 38.8559Z" fill="#000072"/>
</g>
</g>
<path d="M29.1861 29.6225C29.0229 30.0701 28.8159 30.4935 28.5962 30.91C28.4875 31.1188 28.37 31.3235 28.2585 31.5309C28.1464 31.7379 28.0367 31.946 27.93 32.1553C27.5024 32.9916 27.1156 33.8445 26.7991 34.7143C26.6411 35.149 26.4993 35.5878 26.3858 36.0303C26.2716 36.4724 26.1834 36.9184 26.1395 37.364C26.0962 37.8089 26.097 38.2551 26.1773 38.6811C26.1953 38.7903 26.2176 38.8893 26.2526 38.9862C26.2837 39.0842 26.3289 39.1775 26.3762 39.2694C26.4763 39.4509 26.6086 39.6173 26.7662 39.7618C27.0826 40.0492 27.5038 40.2489 27.9515 40.3082C28.1746 40.3417 28.403 40.3355 28.625 40.3025C28.8467 40.2661 29.0612 40.1965 29.2603 40.0988C29.3589 40.0466 29.4533 39.9943 29.5457 39.9268L29.6852 39.8259C29.7324 39.7931 29.7738 39.7529 29.8185 39.7169C29.8618 39.6791 29.9078 39.6444 29.9491 39.6044L30.0727 39.484C30.158 39.4065 30.2303 39.3165 30.3084 39.2318C30.6104 38.8837 30.8674 38.4972 31.0927 38.0944C31.3227 37.6932 31.5036 37.2668 31.6797 36.8398C31.8439 36.408 31.9953 35.9708 32.1219 35.5263C32.1845 35.3038 32.2515 35.0825 32.3036 34.8572C32.3584 34.6327 32.4166 34.409 32.4663 34.183C32.5183 33.9576 32.5868 33.7349 32.653 33.5107C32.7202 33.2868 32.7981 33.064 32.9011 32.8432L32.9017 32.8418C32.9133 32.817 32.9452 32.8052 32.9729 32.8156C32.9922 32.8229 33.0044 32.8391 33.0061 32.8566C33.0507 33.3317 33.0127 33.8001 32.9316 34.2622C32.895 34.4938 32.8347 34.722 32.7844 34.9516C32.7356 35.1816 32.6713 35.4091 32.6114 35.6373C32.4903 36.0937 32.343 36.5455 32.1813 36.9942C32.0071 37.4395 31.8272 37.885 31.5919 38.3134C31.3604 38.7422 31.0966 39.1627 30.766 39.5494C30.6804 39.6443 30.6013 39.7431 30.506 39.8321L30.3678 39.9685C30.3215 40.0138 30.2692 40.0549 30.22 40.0982C30.169 40.1401 30.1222 40.1854 30.0677 40.2245L29.9063 40.3433C29.7986 40.4229 29.6739 40.4951 29.5499 40.5608C29.2967 40.688 29.0196 40.7804 28.7327 40.8293C28.4456 40.8749 28.1498 40.8837 27.8617 40.8433C27.2841 40.7699 26.74 40.5198 26.3282 40.1491C26.1245 39.9618 25.9536 39.7454 25.8253 39.5106C25.7639 39.3923 25.7071 39.2715 25.6671 39.1464C25.623 39.0222 25.5944 38.8931 25.5748 38.7729C25.4842 38.2831 25.4871 37.7939 25.5346 37.3158C25.6335 36.3581 25.9046 35.4382 26.2412 34.5479C26.5776 33.6566 26.9825 32.7915 27.4272 31.9456C27.5382 31.734 27.6522 31.5237 27.7685 31.3146C27.8849 31.1054 28.002 30.8966 28.1304 30.6931C28.3891 30.287 28.6743 29.894 29.0351 29.5415C29.0687 29.5087 29.1255 29.5065 29.162 29.5366C29.1888 29.5587 29.1973 29.5919 29.1867 29.621L29.1861 29.6225Z" fill="#000072"/>
<path d="M32.0592 36.793C31.9991 36.793 31.9388 36.7735 31.8912 36.734C31.8699 36.7164 29.7231 34.9702 26.5378 34.7567C26.4014 34.7475 26.2991 34.6409 26.3093 34.5186C26.3195 34.3962 26.4385 34.3039 26.5747 34.3136C29.9385 34.5392 32.1355 36.3315 32.2274 36.4078C32.3278 36.491 32.334 36.6316 32.2411 36.7216C32.1923 36.769 32.1258 36.793 32.0592 36.793Z" fill="#000072"/>
<path d="M24.5041 27.6026C30.982 27.6026 33.5541 25.0648 33.5541 25.0648C33.5541 25.0648 33.662 25.2833 33.7145 25.5939C33.8015 26.1081 33.558 26.624 33.0943 26.9364C32.075 27.6231 29.4796 28.9316 24.5007 28.9316C19.5219 28.9316 16.9264 27.6231 15.9072 26.9364C15.4435 26.624 15.2 26.1081 15.287 25.5939C15.3395 25.2833 15.4474 25.0648 15.4474 25.0648C15.4474 25.0648 18.0195 27.6026 24.4974 27.6026" fill="#751313"/>
<g opacity="0.300003">
<g opacity="0.300003">
<path opacity="0.300003" d="M33.6928 25.4749C33.6094 25.7974 33.4008 26.0905 33.0962 26.2956C32.077 26.9824 29.4816 28.2909 24.5027 28.2909C19.5238 28.2909 16.9284 26.9824 15.9091 26.2956C15.6046 26.0905 15.3959 25.7974 15.3126 25.4749C15.304 25.5128 15.2959 25.5524 15.2889 25.5939C15.2019 26.1082 15.4454 26.624 15.9091 26.9364C16.9284 27.6231 19.5238 28.9316 24.5027 28.9316C29.4816 28.9316 32.077 27.6231 33.0962 26.9364C33.5599 26.624 33.8034 26.1082 33.7165 25.5939C33.7094 25.5524 33.7014 25.5128 33.6928 25.4749Z" fill="#000072"/>
</g>
</g>
<path d="M24.5005 29.1543C19.5283 29.1543 16.889 27.8763 15.7582 27.1145C15.2161 26.7492 14.9416 26.154 15.0419 25.5612C15.0987 25.2249 15.2158 24.9854 15.2207 24.9754C15.2547 24.9067 15.325 24.858 15.4076 24.8461C15.4902 24.8339 15.5741 24.8603 15.6305 24.9159C15.6553 24.9402 18.2231 27.381 24.4972 27.381V27.8253C19.1385 27.8253 16.4203 26.1301 15.565 25.4699C15.5527 25.5186 15.5412 25.5715 15.5316 25.6277C15.4587 26.0587 15.6596 26.4924 16.0558 26.7593C17.1371 27.4878 19.6722 28.71 24.5005 28.71C29.3289 28.71 31.864 27.4878 32.9454 26.7593C33.3415 26.4924 33.5423 26.0588 33.4694 25.6277C33.4599 25.5715 33.4484 25.5186 33.436 25.4699C32.5808 26.1301 29.8625 27.8253 24.5039 27.8253V27.381C30.7993 27.381 33.3456 24.9405 33.3706 24.9159C33.4269 24.8603 33.5108 24.834 33.5934 24.8461C33.6761 24.858 33.7464 24.9067 33.7803 24.9754C33.7853 24.9854 33.9024 25.2249 33.9592 25.5612C34.0595 26.154 33.785 26.7493 33.2429 27.1145C32.1122 27.8763 29.4728 29.1543 24.5005 29.1543Z" fill="#000072"/>
<path d="M15.457 26.9438L19.4511 35.0977" stroke="#000072" stroke-width="0.2" stroke-miterlimit="10"/>
<path d="M29.3848 35.0977L33.4636 26.9438" stroke="#000072" stroke-width="0.2" stroke-miterlimit="10"/>
<path fill-rule="evenodd" clip-rule="evenodd" d="M24.2077 30.2727C24.2061 30.2923 24.1928 30.3099 24.1839 30.3292C24.1754 30.3479 24.1675 30.368 24.1601 30.3876C24.1408 30.4388 24.1228 30.4892 24.1244 30.5555C24.1903 30.5633 24.2733 30.5575 24.3327 30.55C24.3652 30.5629 24.3861 30.583 24.4161 30.5975C24.4104 30.5727 24.4375 30.568 24.4607 30.561C24.4504 30.5717 24.4344 30.5789 24.4399 30.5993C24.4534 30.6048 24.4556 30.5901 24.4667 30.5883C24.482 30.599 24.5014 30.5985 24.5173 30.5883C24.5286 30.5899 24.5256 30.6003 24.5381 30.6011C24.5557 30.5869 24.5305 30.5715 24.5232 30.561C24.5453 30.5681 24.5704 30.5734 24.5679 30.5956C24.5919 30.5867 24.6212 30.5651 24.6452 30.55C24.7072 30.558 24.7865 30.5618 24.8595 30.5573C24.857 30.4463 24.8131 30.3607 24.7702 30.2745C24.7821 30.2736 24.782 30.2832 24.7851 30.2873C24.8294 30.346 24.8688 30.4131 24.9012 30.4843C24.9059 30.4947 24.9138 30.5088 24.919 30.5227C24.9236 30.5348 24.9332 30.556 24.9309 30.5628C24.9258 30.5778 24.8855 30.5828 24.8773 30.5956C24.8526 30.5777 24.7812 30.5829 24.7137 30.581C24.6945 30.5805 24.6689 30.5772 24.6571 30.5792C24.6312 30.5838 24.6198 30.607 24.6065 30.6194C24.6432 30.6209 24.6722 30.5991 24.7047 30.5975C24.7254 30.5964 24.7556 30.6059 24.7821 30.6102C24.8588 30.6227 24.9444 30.6332 25.0143 30.6467C25.0185 30.5 24.957 30.3777 24.8744 30.2782C24.9565 30.3476 25.0118 30.4289 25.0529 30.5245C25.06 30.541 25.0662 30.5567 25.0708 30.5737C25.0773 30.5976 25.0776 30.6272 25.0976 30.6449C25.0729 30.6614 25.0432 30.6748 25.0172 30.6905C24.9441 30.6638 24.8028 30.6252 24.6839 30.6321C24.6554 30.6338 24.6303 30.6425 24.6095 30.654C24.6458 30.6629 24.671 30.6638 24.7196 30.6631C24.7317 30.663 24.7492 30.6599 24.7583 30.6613C24.7686 30.6629 24.7852 30.676 24.8 30.685C24.8859 30.7377 24.9628 30.7763 25.0648 30.8182C25.0967 30.8313 25.1147 30.8446 25.1511 30.8274C25.1572 31.0005 25.0822 31.1283 24.9904 31.2452C24.9797 31.2588 24.973 31.2746 24.9547 31.2853C25.0237 31.1855 25.0767 31.0668 25.0767 30.9277C25.0767 30.9131 25.0813 30.8949 25.0767 30.8821C25.0703 30.8639 25.0235 30.8445 24.9964 30.8292C24.9195 30.7857 24.8583 30.7551 24.7732 30.7142C24.7565 30.7062 24.7423 30.6954 24.7286 30.6923C24.714 30.6891 24.6912 30.6884 24.675 30.6869C24.6547 30.6849 24.6352 30.6844 24.6184 30.6832C24.6513 30.7049 24.7035 30.7318 24.7494 30.7525C24.7577 30.7571 24.7665 30.7509 24.7762 30.7507C24.787 30.9541 24.7624 31.1533 24.669 31.3017C24.6467 31.3372 24.622 31.3719 24.5827 31.3984C24.7096 31.258 24.7192 31.0168 24.6928 30.8055C24.7198 30.7911 24.7081 30.7792 24.6839 30.7617C24.6575 30.7425 24.6105 30.7145 24.5798 30.7051C24.5776 30.7146 24.5829 30.7239 24.5887 30.7325C24.5945 30.7411 24.6074 30.7485 24.6095 30.7562C24.614 30.7725 24.6032 30.8084 24.5976 30.8274C24.5792 30.8903 24.5404 30.9594 24.5053 31.0062C24.493 31.0052 24.5017 30.9914 24.4934 30.9879C24.4802 30.9883 24.4882 31.0018 24.4815 31.0062C24.4406 30.9633 24.4056 30.8924 24.3863 30.8274C24.3794 30.8041 24.3687 30.7762 24.3744 30.7562C24.3789 30.7403 24.4068 30.726 24.4042 30.7069C24.3769 30.7108 24.3515 30.7274 24.3298 30.7416C24.3081 30.7558 24.2856 30.771 24.2703 30.7872C24.2721 30.7952 24.2848 30.7966 24.2881 30.8036C24.2686 31.0175 24.2692 31.2582 24.4012 31.3966C24.3873 31.3955 24.3808 31.3846 24.3744 31.3784C24.2515 31.2579 24.2185 31.0722 24.2048 30.8803C24.2017 30.8379 24.1986 30.7964 24.2077 30.7544C24.2103 30.7456 24.2256 30.7586 24.2345 30.7525C24.2815 30.7309 24.3238 30.7063 24.3685 30.6832C24.3296 30.6869 24.2873 30.6857 24.2524 30.6942C24.2221 30.7015 24.1889 30.7218 24.1601 30.7361C24.0728 30.7798 23.9807 30.8271 23.9072 30.8766C23.8922 31.0394 23.953 31.1706 24.0262 31.2853C23.9206 31.159 23.8225 31.0186 23.8328 30.8274C23.873 30.8508 23.9343 30.8127 23.9667 30.7982C24.0568 30.7577 24.153 30.7056 24.2226 30.6613C24.273 30.6659 24.3322 30.6622 24.3744 30.6558C24.3218 30.6147 24.187 30.6354 24.1066 30.6504C24.0526 30.6604 24.0022 30.6749 23.9697 30.6905C23.9388 30.6778 23.9151 30.6607 23.8863 30.6467C23.9074 30.6143 23.9119 30.5597 23.928 30.5227C23.9673 30.4321 24.0287 30.3519 24.1036 30.2782C24.1016 30.2922 24.0858 30.3042 24.0768 30.3165C24.0116 30.4054 23.9686 30.5156 23.9667 30.6449C24.0355 30.6353 24.1176 30.6235 24.1988 30.6102C24.2253 30.6059 24.2527 30.597 24.2732 30.5975C24.3063 30.5982 24.3374 30.6191 24.3744 30.6194C24.3656 30.6022 24.3488 30.59 24.3298 30.5792C24.2685 30.5835 24.2 30.5768 24.1453 30.5829C24.1397 30.5835 24.1324 30.5855 24.1244 30.5883C24.1251 30.5881 24.1067 30.5956 24.1095 30.5956C24.0972 30.5956 24.0669 30.5692 24.053 30.5664C24.0816 30.4544 24.1461 30.3645 24.2077 30.2727Z" fill="#000072"/>
<path fill-rule="evenodd" clip-rule="evenodd" d="M24.502 29.1543V32.3047Z" fill="#000072"/>
<path d="M24.502 29.1543V32.3047" stroke="#000072" stroke-width="0.2" stroke-miterlimit="10"/>
<path d="M23.4042 29.1322C23.4042 29.1322 23.5973 31.713 23.3145 32.1699" stroke="#000072" stroke-width="0.2" stroke-miterlimit="10"/>
<path d="M22.5376 29.0836C22.5376 29.0836 22.973 30.2777 22.3438 31.8906" stroke="#000072" stroke-width="0.2" stroke-miterlimit="10"/>
<path d="M25.5016 29.1534C25.5016 29.1534 25.2997 31.4402 25.5917 32.2188" stroke="#000072" stroke-width="0.2" stroke-miterlimit="10"/>
<path d="M26.531 29.0836C26.531 29.0836 26.0693 31.3512 26.7548 31.8906" stroke="#000072" stroke-width="0.2" stroke-miterlimit="10"/>
<path d="M21.6367 29.5371C21.6367 29.5371 22.0715 29.1649 22.6426 29.5371C22.6426 29.5371 22.9403 29.1677 23.4353 29.5879C23.4353 29.5879 23.7052 29.1278 24.4998 29.5371C24.4998 29.5371 24.8352 29.1525 25.4368 29.5371C25.4368 29.5371 25.9095 29.1101 26.4632 29.5159C26.4632 29.5159 26.9568 29.034 27.3842 29.4644" stroke="#000072" stroke-width="0.2" stroke-miterlimit="10"/>
<path d="M24.4377 30.1281C24.4221 30.1182 24.4067 30.1089 24.3914 30.1001C23.8502 29.789 23.4575 30.1367 23.4575 30.1367C23.056 29.763 22.6837 30.1367 22.6837 30.1367C22.0596 29.4838 21.7227 30.1367 21.7227 30.1367" stroke="#000072" stroke-width="0.2" stroke-miterlimit="10"/>
<path d="M24.4219 30.1347C24.4219 30.1347 24.9152 29.7799 25.4342 30.1347C25.4342 30.1347 25.9384 29.6956 26.3799 30.1543C26.3799 30.1543 27.0352 29.702 27.2796 30.1452" stroke="#000072" stroke-width="0.2" stroke-miterlimit="10"/>
<path d="M21.7227 31.2263C21.7227 31.2263 22.1231 30.6348 22.5445 31.2765C22.5445 31.2765 23.3002 30.8083 23.461 31.4622C23.461 31.4622 24.0868 31.1769 24.5242 31.6465C24.5242 31.6465 24.9876 31.1604 25.5244 31.5311C25.5244 31.5311 25.8828 30.7877 26.4894 31.3613C26.4894 31.3613 26.8631 30.7414 27.2798 31.0951" stroke="#000072" stroke-width="0.2" stroke-miterlimit="10"/>
<path d="M21.6836 31.5807C21.6836 31.5807 22.205 31.1064 22.4331 31.6472C22.4331 31.6472 23.1841 31.3426 23.3938 31.8904C23.3938 31.8904 24.1699 31.5253 24.493 32.1094C24.493 32.1094 24.9522 31.7213 25.5043 31.985C25.5043 31.985 26.0116 31.3005 26.5989 31.7045C26.5989 31.7045 27.0168 31.0644 27.2668 31.4629" stroke="#000072" stroke-width="0.2" stroke-miterlimit="10"/>
<path d="M17.1094 36.7322C17.1094 36.7322 19.4205 34.5534 22.3417 34.7638L23.0057 36.5929C23.0057 36.5929 22.288 39.3087 17.763 38.3936L17.1094 36.7322Z" fill="#000072"/>
<path d="M17.1094 36.7322C17.1094 36.7322 19.4205 34.5534 22.3417 34.7638L23.0057 36.5929C23.0057 36.5929 22.288 39.3087 17.763 38.3936L17.1094 36.7322Z" stroke="#000072" stroke-width="0.2" stroke-miterlimit="10"/>
<path d="M25.8906 37.0432L26.5711 34.4482L29.778 35.3226L31.6887 36.2954V37.0432L31.24 38.3943C31.24 38.3943 28.0295 39.3421 25.8906 37.0432Z" fill="#000072"/>
<path d="M25.8906 37.0432L26.5711 34.4482L29.778 35.3226L31.6887 36.2954V37.0432L31.24 38.3943C31.24 38.3943 28.0295 39.3421 25.8906 37.0432Z" stroke="#000072" stroke-width="0.2" stroke-miterlimit="10"/>
<path d="M9.66016 33.5875L12.1289 39.3281" stroke="#000072" stroke-width="0.2" stroke-miterlimit="10"/>
<path d="M9.01953 34.3125C9.01953 34.3125 9.44611 36.9698 11.3083 39.2852" stroke="#000072" stroke-width="0.2" stroke-miterlimit="10"/>
<path d="M10.6621 33.3671C10.6621 33.3671 12.5904 36.3029 12.8883 39.375" stroke="#000072" stroke-width="0.2" stroke-miterlimit="10"/>
<path d="M11.8984 33.5875C11.8984 33.5875 13.0679 35.6782 13.7272 39.3281" stroke="#000072" stroke-width="0.2" stroke-miterlimit="10"/>
<path d="M8.75781 35.5527C8.75781 35.5527 8.76269 34.9648 9.22875 35.1927C9.22875 35.1927 9.40217 34.1645 10.164 34.8173C10.164 34.8173 10.1928 33.7734 11.2575 34.3993C11.2575 34.3993 11.5611 33.6333 12.1988 34.3128C12.1988 34.3128 12.5151 34.156 12.7186 34.5095" stroke="#000072" stroke-width="0.2" stroke-miterlimit="10"/>
<path d="M9.08984 34.6719C9.08984 34.6719 9.25329 33.9115 9.90395 34.1634C9.90395 34.1634 10.0328 33.5384 10.8908 33.7462C10.8908 33.7462 11.0171 33.3374 12.0352 33.8599" stroke="#000072" stroke-width="0.2" stroke-miterlimit="10"/>
<path d="M8.84766 35.8652C8.84766 35.8652 8.88358 35.276 9.38062 35.686C9.38062 35.686 9.53723 34.6658 10.4056 35.3232C10.4056 35.3232 10.4289 34.3243 11.4393 34.8888C11.4393 34.8888 11.8111 34.3311 12.4591 34.817C12.4591 34.817 12.5748 34.5267 12.8982 34.817" stroke="#000072" stroke-width="0.2" stroke-miterlimit="10"/>
<path d="M8.84766 36.3711C8.84766 36.3711 9.04939 35.8045 9.60133 36.2964C9.60133 36.2964 9.93909 35.3712 10.6617 35.9973C10.6617 35.9973 10.9528 34.7624 11.8391 35.6106C11.8391 35.6106 11.977 34.8042 12.6819 35.4008C12.6819 35.4008 12.7354 34.9057 13.1071 35.3032" stroke="#000072" stroke-width="0.2" stroke-miterlimit="10"/>
<path d="M9.01953 36.7988C9.01953 36.7988 9.20723 36.3321 9.75413 36.6672C9.75413 36.6672 10.3487 35.9305 10.8944 36.4581C10.8944 36.4581 11.48 35.6652 12.0388 36.2678C12.0388 36.2678 12.3295 35.5238 12.9041 36.0417C12.9041 36.0417 13.1171 35.7644 13.2891 36.0043" stroke="#000072" stroke-width="0.2" stroke-miterlimit="10"/>
<path d="M9.21484 37.3477C9.21484 37.3477 9.54541 36.8393 9.96805 37.1429C9.96805 37.1429 10.3384 36.5635 11.1454 37.0462C11.1454 37.0462 11.5294 36.2618 12.3196 36.8541C12.3196 36.8541 12.6054 36.1867 13.1057 36.7919C13.1057 36.7919 13.1076 36.1442 13.4578 36.4576" stroke="#000072" stroke-width="0.2" stroke-miterlimit="10"/>
<path d="M9.46094 37.9883V37.8252C9.46094 37.8252 9.68239 37.2305 10.2126 37.6184C10.2126 37.6184 10.7601 37.0557 11.3394 37.4899C11.3394 37.4899 11.9381 36.7872 12.4796 37.3474C12.4796 37.3474 12.8057 36.7332 13.29 37.3451" stroke="#000072" stroke-width="0.2" stroke-miterlimit="10"/>
<path d="M9.87305 38.1895C9.87305 38.1895 9.89357 37.873 10.4189 37.99C10.4189 37.99 10.9819 37.6075 11.5418 37.9641C11.5418 37.9641 11.9368 37.3358 12.6071 37.812C12.6071 37.812 13.0713 37.3224 13.3889 37.737" stroke="#000072" stroke-width="0.2" stroke-miterlimit="10"/>
<path d="M10.1641 38.582C10.1641 38.582 10.367 38.3052 10.7383 38.5016C10.7383 38.5016 11.2204 38.0821 11.7437 38.4312C11.7437 38.4312 12.1078 37.9364 12.7202 38.2924C12.7202 38.2924 13.1086 37.8412 13.4962 38.1872" stroke="#000072" stroke-width="0.2" stroke-miterlimit="10"/>
<path d="M10.5645 38.8633C10.5645 38.8633 10.6281 38.5702 10.9764 38.8504C10.9764 38.8504 11.3833 38.6161 11.8978 38.8633C11.8978 38.8633 12.4588 38.5479 12.8122 38.7962C12.8122 38.7962 13.2715 38.4867 13.5768 38.7821" stroke="#000072" stroke-width="0.2" stroke-miterlimit="10"/>
<path d="M11.1543 39.0688C11.1543 39.0688 11.4249 38.8141 12.0388 39.1191C12.0388 39.1191 12.3757 38.9347 12.6844 38.9997C12.7285 39.009 12.772 39.0234 12.8138 39.0441" stroke="#000072" stroke-width="0.2" stroke-miterlimit="10"/>
<path d="M12.8555 39.1211C12.8555 39.1211 13.1676 38.8762 13.6979 39.0448" stroke="#000072" stroke-width="0.2" stroke-miterlimit="10"/>
<path d="M13.4591 36.3718C13.366 36.5616 13.7274 39.5488 13.7274 39.5488H18.2354L18.1394 39.3277L17.1112 37.5688L16.4676 35.9165C15.0092 35.731 13.5776 32.6681 13.5776 32.6681L12.5625 33.6362L12.813 34.1627L13.2883 35.1478L13.4591 36.3718Z" fill="#000072"/>
<path d="M39.1598 33.4486L36.9531 39.3281" stroke="#000072" stroke-width="0.2" stroke-miterlimit="10"/>
<path d="M39.7476 34.166C39.7476 34.166 39.3553 37.9179 37.5137 39.418" stroke="#000072" stroke-width="0.2" stroke-miterlimit="10"/>
<path d="M38.3077 33.4122C38.3077 33.4122 36.8132 36.6312 36.1035 39.3633" stroke="#000072" stroke-width="0.2" stroke-miterlimit="10"/>
<path d="M37.0641 33.6941C37.0641 33.6941 35.9764 35.5232 35.4121 39.7031" stroke="#000072" stroke-width="0.2" stroke-miterlimit="10"/>
<path d="M40.111 35.1582C40.111 35.1582 39.992 34.6381 39.6149 34.9882C39.6149 34.9882 39.4574 34.0585 38.7137 34.6325C38.7137 34.6325 38.5037 33.8402 37.851 34.4492C37.851 34.4492 37.343 33.6919 36.7103 34.4492C36.7103 34.4492 36.5795 34.2575 36.2734 34.5096" stroke="#000072" stroke-width="0.2" stroke-miterlimit="10"/>
<path d="M40.1494 35.6836C40.1494 35.6836 40.0097 35.1733 39.4953 35.552C39.4953 35.552 39.1962 34.9125 38.4547 35.3227C38.4547 35.3227 38.2808 34.675 37.5101 35.0969C37.5101 35.0969 37.2824 34.6038 36.5148 34.9542C36.5148 34.9542 36.3352 34.6423 36.0137 34.9817" stroke="#000072" stroke-width="0.2" stroke-miterlimit="10"/>
<path d="M40.1464 36.2969C40.1464 36.2969 39.8526 35.7473 39.3508 36.1033C39.3508 36.1033 38.8817 35.5074 38.2039 35.9833C38.2039 35.9833 37.9476 35.4024 37.2959 35.799C37.2959 35.799 36.9624 35.1585 36.2705 35.6111C36.2705 35.6111 36.1436 35.2734 35.6406 35.5533" stroke="#000072" stroke-width="0.2" stroke-miterlimit="10"/>
<path d="M40.0269 36.793C40.0269 36.793 39.8538 36.2496 39.1687 36.7003C39.1687 36.7003 38.7019 36.0028 38.0048 36.5192C38.0048 36.5192 37.7035 35.8085 37.0647 36.3891C37.0647 36.3891 36.8632 35.8109 36.1026 36.2502C36.1026 36.2502 35.9912 35.7978 35.6666 36.186C35.3419 36.5742 35.5808 36.1788 35.5808 36.1788" stroke="#000072" stroke-width="0.2" stroke-miterlimit="10"/>
<path d="M39.8431 37.332C39.8431 37.332 39.5952 36.7254 38.9843 37.2017C38.9843 37.2017 38.602 36.7064 37.817 37.0192C37.817 37.0192 37.3425 36.5082 36.7923 37.019C36.7923 37.019 36.4176 36.4995 35.9256 36.9323C35.9256 36.9323 35.734 36.0798 35.2715 36.9036" stroke="#000072" stroke-width="0.2" stroke-miterlimit="10"/>
<path d="M39.471 37.752C39.471 37.752 39.4559 37.1978 38.7967 37.6435C38.7967 37.6435 38.3624 37.0999 37.5977 37.611C37.5977 37.611 37.1843 37.0516 36.6252 37.6428C36.6252 37.6428 36.2443 37.1006 35.7718 37.6255C35.7718 37.6255 35.7569 36.7217 35.1191 37.4302" stroke="#000072" stroke-width="0.2" stroke-miterlimit="10"/>
<path d="M39.156 38.2207C39.156 38.2207 39.0579 37.9183 38.5314 38.1519C38.5314 38.1519 37.9595 37.7668 37.3943 38.142C37.3943 38.142 37.068 37.7306 36.4709 38.0992C36.4709 38.0992 35.9795 37.7151 35.6418 38.0833C35.6418 38.0833 35.6716 37.396 34.9551 37.9237" stroke="#000072" stroke-width="0.2" stroke-miterlimit="10"/>
<path d="M38.7769 38.5882C38.7769 38.5882 38.6961 38.2468 38.2588 38.5882C38.2588 38.5882 37.7622 38.2888 37.2039 38.6504C37.2039 38.6504 36.6545 38.3383 36.301 38.6504C36.301 38.6504 35.9222 38.19 35.5215 38.6504C35.5215 38.6504 35.3988 38.042 35.0117 38.5434" stroke="#000072" stroke-width="0.2" stroke-miterlimit="10"/>
<path d="M38.4446 38.764C38.4446 38.764 38.2633 38.6152 38.0814 38.8306C38.0814 38.8306 37.3554 38.6393 37.0657 39.0234C37.0657 39.0234 36.7539 38.7187 36.1954 39.0234C36.1954 39.0234 35.9225 38.5734 35.5133 39.0234C35.5133 39.0234 35.2878 38.4251 34.8652 39.0234" stroke="#000072" stroke-width="0.2" stroke-miterlimit="10"/>
<path d="M32.683 35.8686L34.1318 34.6164L35.2714 32.8829L35.4125 32.4982L36.369 33.4486L36.4441 33.9208L35.9256 34.4486L35.6426 35.0972L35.522 35.8686V36.2829L35.5122 36.5594C35.5122 36.5594 35.0174 38.651 35.2714 39.4741L30.8588 39.5723L30.7148 39.3281L31.4356 38.0727L32.2267 36.4071L32.683 35.8686Z" fill="#000072"/>
<path d="M31.8752 27.7483C31.8752 27.7483 28.3438 33.8936 27.9473 35.6094" stroke="#000072" stroke-width="0.2" stroke-miterlimit="10"/>
<path d="M30.7459 28.2207C30.7459 28.2207 27.2939 34.4171 27.5992 34.9414" stroke="#000072" stroke-width="0.2" stroke-miterlimit="10"/>
<path d="M34.0444 27.8825C34.0444 27.8825 31.4199 34.2931 30.1992 35.791" stroke="#000072" stroke-width="0.2" stroke-miterlimit="10"/>
<path d="M29.3105 29.1548C29.3105 29.1548 30.1092 28.3969 30.3066 29.0296C30.3066 29.0296 30.8428 28.3215 31.2797 28.8065C31.2797 28.8065 32.3203 28.0551 32.4869 28.8957C32.4869 28.8957 33.433 28.2273 33.5118 29.1548C33.5118 29.1548 33.8553 29.0677 33.847 29.8469C33.847 29.8469 34.1556 30.4523 34.066 30.6875" stroke="#000072" stroke-width="0.2" stroke-miterlimit="10"/>
<path d="M30.623 28.4452C30.623 28.4452 31.2484 27.9387 31.6053 28.2213C31.6053 28.2213 32.4468 27.4565 32.8855 28.0928C32.8855 28.0928 33.7176 27.9609 33.7323 28.6279C33.7323 28.6279 34.0692 29.007 34.043 29.1546C34.043 29.1546 33.6573 31.4784 32.9197 32.8594C32.9197 32.8594 31.9417 35.8685 30.9458 36.1094" stroke="#000072" stroke-width="0.2" stroke-miterlimit="10"/>
<path d="M29.1875 29.6218C29.1875 29.6218 29.6875 29.0621 29.984 29.6218C29.984 29.6218 30.7171 28.988 30.7468 29.6218C30.7468 29.6218 31.9041 29.12 32.0569 29.7496C32.0569 29.7496 32.9114 29.2034 33.0841 30.1373C33.0841 30.1373 33.9055 29.8618 33.645 30.8121C33.645 30.8121 34.1007 30.7051 34.0148 31.3027" stroke="#000072" stroke-width="0.2" stroke-miterlimit="10"/>
<path d="M28.7363 30.3196C28.7363 30.3196 29.4629 29.7109 29.5543 30.4272C29.5543 30.4272 30.2578 29.8129 30.2963 30.5894C30.2963 30.5894 31.5533 30.0107 31.5246 30.8102C31.5246 30.8102 32.4026 30.5592 32.5602 31.3117C32.5602 31.3117 33.3187 31.0848 33.3976 31.7197C33.3976 31.7197 33.957 31.6885 33.9046 32.0938" stroke="#000072" stroke-width="0.2" stroke-miterlimit="10"/>
<path d="M28.3535 31.0955C28.3535 31.0955 28.9133 30.2573 29.2536 31.0905C29.2536 31.0905 29.7064 30.7242 29.9119 31.2432C29.9119 31.2432 31.0131 30.9137 31.1096 31.6469C31.1096 31.6469 31.8548 31.227 32.2262 31.8901C32.2262 31.8901 33.0905 31.7621 33.2162 32.2194C33.2162 32.2194 33.6103 32.1093 33.7517 32.498" stroke="#000072" stroke-width="0.2" stroke-miterlimit="10"/>
<path d="M28.1348 31.5823C28.1348 31.5823 28.6528 31.3395 28.8072 31.8913C28.8072 31.8913 29.3437 31.4703 29.5592 31.9753C29.5592 31.9753 30.4376 31.674 30.7193 32.3057C30.7193 32.3057 31.6709 31.982 31.9803 32.5779C31.9803 32.5779 32.6256 32.4241 32.9777 32.8167C32.9777 32.8167 33.4058 32.6725 33.4642 33.0645" stroke="#000072" stroke-width="0.2" stroke-miterlimit="10"/>
<path d="M27.7578 32.2288C27.7578 32.2288 28.476 31.7502 28.4748 32.553C28.4748 32.553 29.0987 32.1571 29.1857 32.6514C29.1857 32.6514 30.157 32.3989 30.397 33.0627C30.397 33.0627 31.2056 32.5342 31.6048 33.3408C31.6048 33.3408 32.4368 32.9413 32.6254 33.5996" stroke="#000072" stroke-width="0.2" stroke-miterlimit="10"/>
<path d="M27.4941 32.9974C27.4941 32.9974 28.0491 32.4606 28.2344 33.0626C28.2344 33.0626 28.7454 32.6749 28.934 33.2254C28.934 33.2254 29.8278 33.0031 30.1297 33.5996C30.1297 33.5996 30.932 33.2908 31.3225 33.9041C31.3225 33.9041 32.0162 33.5076 32.3745 34.1113" stroke="#000072" stroke-width="0.2" stroke-miterlimit="10"/>
<path d="M27.2461 33.5046C27.2461 33.5046 27.8149 33.189 27.9939 33.6001C27.9939 33.6001 28.4921 33.2914 28.6839 33.7502C28.6839 33.7502 29.6611 33.5699 29.8127 34.1119C29.8127 34.1119 30.7047 33.8831 31.051 34.4229C31.051 34.4229 31.7287 34.2077 32.1211 34.6346C32.1211 34.6346 32.2799 34.5493 32.2796 34.9414" stroke="#000072" stroke-width="0.2" stroke-miterlimit="10"/>
<path d="M27.0254 33.9812C27.0254 33.9812 27.6333 33.7017 27.7565 34.0601C27.7565 34.0601 28.4087 33.8257 28.4613 34.2267C28.4613 34.2267 29.5673 34.0022 29.633 34.5872C29.633 34.5872 30.6123 34.3242 30.757 34.9408C30.757 34.9408 31.606 34.6276 31.7936 35.3223C31.7936 35.3223 32.1248 35.1815 32.2207 35.6094" stroke="#000072" stroke-width="0.2" stroke-miterlimit="10"/>
<path d="M16.5684 27.3014C16.5684 27.3014 19.7163 31.9419 20.4519 34.9414" stroke="#000072" stroke-width="0.2" stroke-miterlimit="10"/>
<path d="M18.377 28.1966C18.377 28.1966 20.7287 32.0603 21.5095 34.6172" stroke="#000072" stroke-width="0.2" stroke-miterlimit="10"/>
<path d="M15.0566 28.0385C15.0566 28.0385 17.7981 35.0092 18.6959 35.5527" stroke="#000072" stroke-width="0.2" stroke-miterlimit="10"/>
<path d="M14.9453 29.3397C14.9453 29.3397 17.1626 35.5514 17.824 35.8691" stroke="#000072" stroke-width="0.2" stroke-miterlimit="10"/>
<path d="M15.2559 28.3184C15.2559 28.3184 15.317 27.5892 15.9794 28.0115C15.9794 28.0115 16.2434 27.4891 16.9938 27.9449C16.9938 27.9449 17.193 27.6652 17.8269 27.8929" stroke="#000072" stroke-width="0.2" stroke-miterlimit="10"/>
<path d="M15.0957 29.748C15.0957 29.748 15.1551 29.2349 15.6225 29.4356C15.6225 29.4356 15.7672 28.7246 16.5716 29.2216C16.5716 29.2216 16.7209 28.4737 17.6088 28.9314C17.6088 28.9314 18.1668 28.276 18.8095 28.9314C18.8095 28.9314 19.2797 28.5396 19.6231 28.9314" stroke="#000072" stroke-width="0.2" stroke-miterlimit="10"/>
<path d="M14.9453 29.1328C14.9453 29.1328 15.1515 28.8205 15.3992 28.9322C15.3992 28.9322 15.6662 28.2531 16.2429 28.5556C16.2429 28.5556 16.6083 28.0633 17.2678 28.3827C17.2678 28.3827 17.9544 28.0992 18.3752 28.2749" stroke="#000072" stroke-width="0.2" stroke-miterlimit="10"/>
<path d="M14.8711 30.7207C14.8711 30.7207 14.9504 30.3754 15.4001 30.5741C15.4001 30.5741 15.4621 30.0521 15.9776 30.3219C15.9776 30.3219 16.1098 29.6052 17.0271 30.049C17.0271 30.049 17.1197 29.2128 18.0932 29.7478C18.0932 29.7478 18.5214 29.1067 19.1699 29.569C19.1699 29.569 19.2422 29.2039 19.7391 29.5144" stroke="#000072" stroke-width="0.2" stroke-miterlimit="10"/>
<path d="M14.9453 31.5273C14.9453 31.5273 15.1505 30.956 15.6743 31.3012C15.6743 31.3012 15.7826 30.6918 16.321 31.0949C16.321 31.0949 16.7199 30.5348 17.3041 30.8105C17.3041 30.8105 17.8297 30.0507 18.5113 30.486C18.5113 30.486 19.0061 29.9008 19.5404 30.2463C19.5404 30.2463 19.5594 30.0231 20.0651 30.1358" stroke="#000072" stroke-width="0.2" stroke-miterlimit="10"/>
<path d="M15.0957 32.0938C15.0957 32.0938 15.2367 31.5063 15.9005 31.8892C15.9005 31.8892 16.2087 31.4874 16.6103 31.758C16.6103 31.758 16.9557 31.0784 17.6694 31.4693C17.6694 31.4693 18.1485 30.8505 18.9181 31.24C18.9181 31.24 19.2697 30.7233 19.9472 31.0193C19.9472 31.0193 19.8897 30.7157 20.4041 30.909" stroke="#000072" stroke-width="0.2" stroke-miterlimit="10"/>
<path d="M15.3594 32.668C15.3594 32.668 15.5139 32.1524 16.0497 32.4112C16.0497 32.4112 16.3689 31.8717 16.8538 32.2784C16.8538 32.2784 17.0676 31.5925 17.9748 32.0614C17.9748 32.0614 18.4077 31.4627 19.2052 31.7555C19.2052 31.7555 19.5219 31.1894 20.2358 31.5357C20.2358 31.5357 20.3842 31.2547 20.7447 31.4794" stroke="#000072" stroke-width="0.2" stroke-miterlimit="10"/>
<path d="M15.3965 33.1797C15.3965 33.1797 15.6139 32.5196 16.2078 32.6679C16.2078 32.6679 16.7414 32.4103 17.0104 32.6462C17.0104 32.6462 17.7775 32.1294 18.1715 32.4975C18.1715 32.4975 18.9642 31.9356 19.4446 32.2935C19.4446 32.2935 19.9859 31.8858 20.5158 32.1698C20.5158 32.1698 20.8062 31.8827 21.1648 32.094" stroke="#000072" stroke-width="0.2" stroke-miterlimit="10"/>
<path d="M21.5069 32.8839C21.5069 32.8839 20.9548 32.2297 20.8266 32.8451C20.8266 32.8451 19.8841 32.3387 19.7953 33.0643C19.7953 33.0643 18.8694 32.4408 18.5438 33.2554C18.5438 33.2554 17.5971 32.7887 17.3565 33.4458C17.3565 33.4458 16.7527 32.8796 16.6594 33.6013C16.6594 33.6013 16.3442 33.4933 16.2891 33.7734" stroke="#000072" stroke-width="0.2" stroke-miterlimit="10"/>
<path d="M21.7559 33.4447C21.7559 33.4447 21.2454 32.9393 21.1096 33.5123C21.1096 33.5123 20.3592 33.0697 20.0419 33.6682C20.0419 33.6682 19.2326 33.3015 18.9182 33.9818C18.9182 33.9818 18.0525 33.5491 17.8229 34.295C17.8229 34.295 17.2284 34.0793 17.025 34.6178C17.025 34.6178 16.7193 34.5452 16.5684 34.9414" stroke="#000072" stroke-width="0.2" stroke-miterlimit="10"/>
<path d="M21.8762 33.8778C21.8762 33.8778 21.4909 33.2536 21.311 34.0308C21.311 34.0308 20.8329 33.7642 20.2731 34.3119C20.2731 34.3119 19.5571 34.092 19.164 34.517C19.164 34.517 18.5969 34.3771 18.1854 34.7502C18.1628 34.7707 18.1407 34.7927 18.1191 34.8164" stroke="#000072" stroke-width="0.2" stroke-miterlimit="10"/>
<path d="M18.1389 34.793C18.1389 34.793 17.61 34.75 17.3352 35.1921C17.3352 35.1921 16.9536 35.2067 16.7774 35.61C16.6012 36.0133 16.6947 35.5522 16.6947 35.5522" stroke="#000072" stroke-width="0.2" stroke-miterlimit="10"/>
<path fill-rule="evenodd" clip-rule="evenodd" d="M24.4532 10.9057C30.5281 10.9057 35.2013 16.5759 35.2013 21.3105C35.2013 26.0453 26.6357 27.9586 24.4532 28.0519C22.2706 28.1452 13.2598 25.9064 13.2598 21.1717C13.2598 16.437 18.3783 10.9057 24.4532 10.9057Z" fill="#FF850B"/>
<path d="M24.4561 11.1363C18.3978 11.1363 13.5194 16.6265 13.5194 21.1722C13.5194 22.3542 14.1184 23.4657 15.2999 24.476C17.9316 26.7263 22.7331 27.8247 24.3207 27.8248C24.3643 27.8248 24.4052 27.824 24.4439 27.8223C25.5941 27.7732 28.2439 27.2423 30.5338 26.2162C32.5473 25.3139 34.9474 23.7305 34.9474 21.311C34.9474 16.6058 30.3646 11.1363 24.4561 11.1363ZM24.3272 28.2852C22.6242 28.2852 17.7161 27.1782 14.9456 24.8093C13.6585 23.7087 13.0059 22.485 13.0059 21.1722C13.0059 18.8022 14.2721 16.1611 16.3929 14.1072C18.6446 11.9265 21.5835 10.6759 24.4561 10.6759C27.3466 10.6759 30.1332 11.9213 32.3028 14.1829C34.2803 16.2442 35.461 18.9089 35.461 21.311C35.461 23.4124 33.8365 25.251 30.7633 26.6281C28.4067 27.6842 25.6635 28.2312 24.4683 28.2823C24.4242 28.2842 24.377 28.2852 24.3272 28.2852" fill="#000072"/>
<g opacity="0.5">
<g opacity="0.5">
<path opacity="0.5" fill-rule="evenodd" clip-rule="evenodd" d="M24.4528 10.9061C28.1864 10.9061 31.3901 13.0483 33.3052 15.7984C33.3251 15.8872 33.3443 15.9765 33.3612 16.0664C31.6127 13.7679 28.8864 12.2523 25.8672 11.8434C26.0608 11.909 26.173 11.9869 26.173 12.0705C26.173 12.3042 25.2953 12.4936 24.2127 12.4936C23.1302 12.4936 22.2525 12.3042 22.2525 12.0705C22.2525 11.9869 22.3645 11.909 22.5583 11.8434C19.5389 12.2523 16.8129 13.7681 15.0645 16.0664L15.0741 16.018C17.0902 13.158 20.5768 10.9061 24.4528 10.9061Z" fill="white"/>
</g>
</g>
<path fill-rule="evenodd" clip-rule="evenodd" d="M34.9128 22.7653C33.4022 26.4423 26.3967 27.9688 24.4532 28.0519C22.5296 28.1342 15.3035 26.4045 13.6152 22.7519C13.7447 20.7623 14.8718 20.2185 16.9562 21.1908C17.8134 21.5905 18.6853 22.0075 19.3763 21.69C23.3202 19.8772 25.7283 20.219 28.4278 21.69C29.6902 22.378 30.9221 21.3518 31.695 21.0389C34.1567 20.0421 35.2861 20.7393 34.9128 22.7653Z" fill="white"/>
<g opacity="0.300003">
<g opacity="0.300003">
<path opacity="0.300003" fill-rule="evenodd" clip-rule="evenodd" d="M35.1545 20.4834C35.1851 20.7612 35.2013 21.0373 35.2013 21.3102C35.2013 21.4846 35.1883 21.6546 35.1659 21.8215L35.1682 21.7716C34.8682 24.9313 27.773 27.344 23.956 27.5387C20.7698 27.7014 14.4061 24.6255 13.3361 21.7716C13.3381 21.8308 13.3414 21.8898 13.3444 21.9488C13.2899 21.6975 13.2598 21.4386 13.2598 21.1714C13.2598 20.9586 13.2705 20.7443 13.2907 20.5288L13.3073 20.4827C15.7947 23.6897 19.8751 25.6019 24.2313 25.6019C28.587 25.6019 32.6672 23.6898 35.1545 20.4834Z" fill="#000072"/>
</g>
</g>
<path fill-rule="evenodd" clip-rule="evenodd" d="M20.5246 18.9696C20.1849 18.8338 19.8372 18.6062 19.4819 18.2872C18.8659 18.3123 18.373 18.9024 18.373 19.6266C18.373 20.3667 18.8877 20.9668 19.5224 20.9668C20.1573 20.9668 20.672 20.3667 20.672 19.6266C20.672 19.3879 20.6184 19.1638 20.5246 18.9696Z" fill="#000072"/>
<path d="M30.173 17.7092C29.7584 18.2031 29.3508 18.5851 28.9502 18.855C28.3609 19.252 27.723 19.3216 27.6523 18.8842C27.9694 18.8517 28.2997 18.7195 28.6433 18.4881C29.4901 17.9173 29.7548 17.5499 30.173 17.7092Z" fill="#000072"/>
<path fill-rule="evenodd" clip-rule="evenodd" d="M28.2392 18.9696C28.5788 18.8338 28.9266 18.6062 29.282 18.2872C29.898 18.3123 30.3907 18.9024 30.3907 19.6266C30.3907 20.3667 29.8762 20.9668 29.2413 20.9668C28.6064 20.9668 28.0918 20.3667 28.0918 19.6266C28.0918 19.3879 28.1453 19.1638 28.2392 18.9696" fill="#000072"/>
<path fill-rule="evenodd" clip-rule="evenodd" d="M28.7633 19.2869C28.5768 19.2869 28.4258 19.4312 28.4258 19.6092C28.4258 19.7873 28.5768 19.9316 28.7633 19.9316C28.9496 19.9316 29.1007 19.7873 29.1007 19.6092C29.1007 19.4312 28.9496 19.2869 28.7633 19.2869Z" fill="white"/>
<path fill-rule="evenodd" clip-rule="evenodd" d="M24.2345 19.8629C25.0565 19.8629 25.7229 20.2613 25.7229 20.7527C25.7229 21.2442 25.0565 21.6426 24.2345 21.6426C23.4124 21.6426 22.7461 21.2442 22.7461 20.7527C22.7461 20.2613 23.4124 19.8629 24.2345 19.8629Z" fill="#000072"/>
<path d="M25.6551 22.7324C25.1312 22.7324 24.6245 22.5577 24.2356 22.2455C23.8013 22.6002 23.2027 22.7652 22.6143 22.6813C21.9307 22.5839 21.3511 22.1637 21.1013 21.5848C21.0502 21.4662 21.1159 21.3329 21.2482 21.287C21.3804 21.2412 21.5291 21.3001 21.5803 21.4187C21.7642 21.8452 22.1913 22.1547 22.6949 22.2265C23.1987 22.2983 23.7116 22.1228 24.034 21.7686C24.0821 21.7157 24.154 21.6847 24.2301 21.684C24.3068 21.684 24.3787 21.7128 24.4282 21.7647C24.7644 22.1181 25.2723 22.3058 25.7891 22.2669C26.3052 22.2281 26.7719 21.9669 27.0377 21.5683C27.1104 21.4591 27.2683 21.4235 27.3898 21.4888C27.5115 21.554 27.5512 21.6954 27.4784 21.8045C27.128 22.3302 26.5126 22.6746 25.8321 22.7258C25.773 22.7302 25.7139 22.7324 25.6551 22.7324Z" fill="#000072"/>
<path fill-rule="evenodd" clip-rule="evenodd" d="M24.2336 21.9145C24.7688 22.3707 25.2946 22.5648 25.8112 22.4966C25.939 25.5038 22.5395 25.3813 22.6552 22.4542C23.2885 22.5262 23.8145 22.3464 24.2336 21.9145Z" fill="#000072"/>
<path d="M22.9118 22.7009C22.9372 23.4671 23.2403 24.0695 23.745 24.3375C24.0785 24.5145 24.4553 24.517 24.7789 24.3442C25.2621 24.0861 25.54 23.5084 25.5579 22.7403C25.121 22.7278 24.6821 22.5582 24.2475 22.234C23.8733 22.5445 23.4297 22.7009 22.9234 22.7009C22.9196 22.7009 22.9157 22.7009 22.9118 22.7009ZM24.2727 24.9316C24.003 24.9317 23.7318 24.8657 23.4834 24.7338C22.7525 24.3457 22.3574 23.5121 22.3995 22.4469L22.4095 22.1949L22.6884 22.2267C23.2367 22.289 23.6784 22.1377 24.0407 21.7643L24.2168 21.5828L24.4113 21.7485C24.8907 22.1571 25.3371 22.3277 25.7747 22.2697L26.0578 22.2324L26.0686 22.4888C26.1136 23.5467 25.7392 24.3672 25.0417 24.7398C24.8022 24.8677 24.5381 24.9316 24.2727 24.9316Z" fill="#000072"/>
<path fill-rule="evenodd" clip-rule="evenodd" d="M24.2623 23.5775C23.8052 23.5775 23.3759 23.7738 23.1074 24.1052C23.7254 24.8945 24.8212 24.9074 25.4116 24.0985C25.1428 23.7711 24.7161 23.5775 24.2623 23.5775Z" fill="#FF0066"/>
<path d="M23.437 24.1107C23.675 24.346 23.9744 24.4736 24.285 24.471C24.5853 24.4666 24.8623 24.3396 25.0802 24.1095C24.863 23.9184 24.5675 23.808 24.2594 23.808C23.95 23.808 23.6542 23.9188 23.437 24.1107ZM24.2691 24.9316C23.7403 24.9316 23.2404 24.6797 22.8944 24.2378L22.7891 24.1032L22.8968 23.9702C23.2125 23.5803 23.7219 23.3475 24.2594 23.3475C24.7925 23.3475 25.2994 23.5773 25.6154 23.9622L25.7211 24.091L25.6235 24.2249C25.3013 24.6663 24.8165 24.9238 24.2934 24.9314C24.2853 24.9316 24.2771 24.9316 24.2691 24.9316Z" fill="#000072"/>
<path fill-rule="evenodd" clip-rule="evenodd" d="M33.9504 16.4922C32.3015 14.0487 30.3246 12.3944 28.0195 11.5295C32.5411 5.84763 34.5181 7.50187 33.9504 16.4922Z" fill="#FF850B"/>
<path d="M28.4151 11.4336C30.4387 12.2618 32.225 13.7137 33.7363 15.7577C34.0121 10.218 33.1742 8.7438 32.4035 8.50071C31.8152 8.31532 30.649 8.68398 28.4151 11.4336ZM34.1612 17.248L33.7321 16.6121C32.1196 14.2226 30.1647 12.5842 27.9218 11.7426L27.625 11.6313L27.8119 11.3964C29.8802 8.79743 31.4374 7.70773 32.5738 8.06631C34.0234 8.52357 34.5427 11.2053 34.2081 16.506L34.1612 17.248Z" fill="#000072"/>
<path fill-rule="evenodd" clip-rule="evenodd" d="M27.6291 16.7896C28.0094 16.6497 28.3928 16.7004 28.4853 16.9028C28.5778 17.1052 28.3445 17.3827 27.9643 17.5226C27.584 17.6624 27.2007 17.6116 27.1081 17.4093C27.0156 17.2069 27.2489 16.9294 27.6291 16.7896Z" fill="white"/>
<path fill-rule="evenodd" clip-rule="evenodd" d="M21.0014 16.776C20.6212 16.636 20.2378 16.6868 20.1453 16.8892C20.0527 17.0916 20.286 17.3691 20.6662 17.5089C21.0464 17.6487 21.4298 17.598 21.5223 17.3957C21.6149 17.1933 21.3816 16.9158 21.0014 16.776Z" fill="white"/>
<path fill-rule="evenodd" clip-rule="evenodd" d="M19.693 19.2869C19.5065 19.2869 19.3555 19.4312 19.3555 19.6092C19.3555 19.7873 19.5065 19.9316 19.693 19.9316C19.8793 19.9316 20.0304 19.7873 20.0304 19.6092C20.0304 19.4312 19.8793 19.2869 19.693 19.2869Z" fill="white"/>
<path fill-rule="evenodd" clip-rule="evenodd" d="M14.6848 16.6094C16.3336 14.1658 18.3105 12.5116 20.6156 11.6466C16.094 5.96473 14.1171 7.61906 14.6848 16.6094Z" fill="#FF850B"/>
<path d="M16.507 8.57746C16.4038 8.57746 16.3128 8.59244 16.2325 8.61779C15.4618 8.86089 14.6239 10.3351 14.8997 15.8747C16.4108 13.8308 18.1971 12.3789 20.2208 11.5506C18.2919 9.17652 17.159 8.57746 16.507 8.57746ZM14.4748 17.3652L14.4279 16.6231C14.0932 11.3224 14.6125 8.64066 16.0621 8.18337C17.1978 7.82522 18.7555 8.91429 20.824 11.5135L21.0109 11.7483L20.7141 11.8596C18.4711 12.7014 16.5162 14.3397 14.9039 16.7293L14.4748 17.3652Z" fill="#000072"/>
<g opacity="0.649994">
<g opacity="0.649994">
<path opacity="0.649994" fill-rule="evenodd" clip-rule="evenodd" d="M20.0444 11.877C20.2309 11.7942 20.4199 11.717 20.611 11.6452C17.8086 8.12374 15.9842 7.42158 15.1367 9.53591C16.0393 8.04914 17.675 8.82938 20.0441 11.8768L20.0444 11.877Z" fill="white"/>
</g>
</g>
<path fill-rule="evenodd" clip-rule="evenodd" d="M15.9187 14.9531C16.7225 14.0616 17.6334 13.29 18.6516 12.6383C16.3692 8.65248 15.4582 9.42406 15.9187 14.9531Z" fill="#000072"/>
<path d="M16.5073 10.3632C16.4961 10.3632 16.4884 10.3646 16.484 10.3657C16.4565 10.3726 16.2125 10.4628 16.1082 11.4779C16.0378 12.1619 16.0461 13.1331 16.1326 14.3701C16.7962 13.6968 17.5304 13.0925 18.3232 12.5675C17.1223 10.509 16.6241 10.3632 16.5073 10.3632ZM15.7122 15.5488L15.664 14.9693C15.3135 10.7621 15.8114 10.0571 16.3448 9.92244C16.9826 9.76097 17.7414 10.5418 18.8812 12.5322L18.9826 12.7092L18.8019 12.8248C17.8078 13.4611 16.9053 14.2255 16.1196 15.097L15.7122 15.5488Z" fill="#000072"/>
<g opacity="0.300003">
<g opacity="0.300003">
<path opacity="0.300003" fill-rule="evenodd" clip-rule="evenodd" d="M16.2135 10.2666C15.3806 10.8252 14.8426 12.3365 14.5996 14.8003C14.6142 15.3661 14.6418 15.9691 14.6822 16.6094C14.8054 16.4096 14.9356 16.2121 15.0732 16.0178L15.0636 16.0662C15.7289 15.1562 16.4446 14.3672 17.2104 13.6992C16.7626 14.078 16.3406 14.4858 15.9444 14.9225C15.9367 14.931 15.9289 14.9395 15.9211 14.9483C15.9204 14.949 15.9198 14.9498 15.919 14.9508C15.9183 14.9515 15.9177 14.9522 15.917 14.9529C15.6938 12.274 15.7927 10.7119 16.2135 10.2666ZM32.4183 10.1502C33.2513 10.7088 33.7893 12.2201 34.0322 14.6839C34.0176 15.2497 33.99 15.8527 33.9497 16.4929C33.8264 16.2931 33.6962 16.0958 33.5586 15.9013L33.5682 15.9498C32.903 15.0397 32.1873 14.2507 31.4214 13.5829C31.8693 13.9617 32.2912 14.3694 32.6874 14.8061C32.6951 14.8146 32.7029 14.8232 32.7107 14.8318C32.7114 14.8326 32.7121 14.8334 32.7128 14.8343C32.7136 14.8351 32.7141 14.8358 32.7148 14.8366C32.9381 12.1576 32.8391 10.5954 32.4183 10.1502" fill="#000072"/>
</g>
</g>
<g opacity="0.649994">
<g opacity="0.649994">
<path opacity="0.649994" fill-rule="evenodd" clip-rule="evenodd" d="M28.5842 11.7617C28.3977 11.679 28.2087 11.6018 28.0176 11.5301C30.8199 8.00859 32.6444 7.30634 33.492 9.42067C32.5894 7.9339 30.9536 8.71422 28.5845 11.7616L28.5842 11.7617Z" fill="white"/>
</g>
</g>
<path fill-rule="evenodd" clip-rule="evenodd" d="M32.7192 14.8359C31.9154 13.9443 31.0045 13.1727 29.9863 12.521C32.2687 8.5352 33.1798 9.30686 32.7192 14.8359Z" fill="#000072"/>
<path d="M30.3117 12.4521C31.1046 12.9772 31.8389 13.5816 32.5023 14.2548C32.5888 13.0178 32.5971 12.0466 32.5267 11.3626C32.4223 10.3474 32.1785 10.2573 32.151 10.2503C32.1003 10.2377 31.6284 10.1952 30.3117 12.4521ZM32.9226 15.4336L32.5153 14.9817C31.7298 14.1103 30.8274 13.3458 29.833 12.7094L29.6523 12.5938L29.7537 12.4168C30.8934 10.4265 31.6516 9.64578 32.2902 9.8071C32.8235 9.94179 33.3215 10.6467 32.9709 14.8541L32.9226 15.4336Z" fill="#000072"/>
<path d="M16.5071 8.57748C16.4039 8.57748 16.3129 8.59246 16.2326 8.61781C15.4619 8.86092 14.6239 10.3352 14.8997 15.8748C16.4109 13.8308 18.1972 12.3789 20.2209 11.5506C18.2921 9.17654 17.1591 8.57748 16.5071 8.57748ZM14.4747 17.3652L14.4279 16.6231C14.0932 11.3224 14.6126 8.64065 16.0622 8.18339C17.1979 7.82524 18.7556 8.91432 20.8241 11.5135L21.011 11.7483L20.7142 11.8597C18.4712 12.7014 16.5163 14.3398 14.9039 16.7293L14.4747 17.3652Z" fill="#000072"/>
<path d="M24.4561 11.1363C18.3978 11.1363 13.5194 16.6265 13.5194 21.1722C13.5194 22.3542 14.1184 23.4657 15.2999 24.476C17.9316 26.7263 22.7331 27.8247 24.3207 27.8248C24.3643 27.8248 24.4052 27.824 24.4439 27.8223C25.5941 27.7732 28.2439 27.2423 30.5338 26.2162C32.5473 25.3139 34.9474 23.7305 34.9474 21.311C34.9474 16.6058 30.3646 11.1363 24.4561 11.1363ZM24.3272 28.2852C22.6242 28.2852 17.7161 27.1782 14.9456 24.8093C13.6585 23.7087 13.0059 22.485 13.0059 21.1722C13.0059 18.8022 14.2721 16.1611 16.3929 14.1072C18.6446 11.9265 21.5835 10.6759 24.4561 10.6759C27.3466 10.6759 30.1332 11.9213 32.3028 14.1829C34.2803 16.2442 35.461 18.9089 35.461 21.311C35.461 23.4124 33.8365 25.251 30.7633 26.6281C28.4067 27.6842 25.6635 28.2312 24.4683 28.2823C24.4242 28.2842 24.377 28.2852 24.3272 28.2852" fill="#000072"/>
<g opacity="0.559998">
<g opacity="0.559998">
<path opacity="0.559998" fill-rule="evenodd" clip-rule="evenodd" d="M24.7226 20.2202C24.9471 20.2733 25.1131 20.37 25.0936 20.4364C25.0742 20.5027 24.8765 20.5135 24.652 20.4604C24.4275 20.4074 24.2613 20.3106 24.2809 20.2442C24.3004 20.1779 24.4982 20.1671 24.7226 20.2202Z" fill="white"/>
</g>
</g>
<path d="M18.7754 17.7092C19.1901 18.2031 19.5977 18.5851 19.9983 18.855C20.5877 19.252 21.2255 19.3216 21.2962 18.8842C20.9792 18.8517 20.6488 18.7195 20.3052 18.4881C19.4584 17.9173 19.1936 17.5499 18.7754 17.7092Z" fill="#000072"/>
<path d="M28.4151 11.4336C30.4387 12.2618 32.225 13.7137 33.7363 15.7577C34.0121 10.218 33.1742 8.7438 32.4035 8.50071C31.8152 8.31532 30.649 8.68398 28.4151 11.4336ZM34.1612 17.248L33.7321 16.6121C32.1196 14.2226 30.1647 12.5842 27.9218 11.7426L27.625 11.6313L27.8119 11.3964C29.8802 8.79743 31.4374 7.70773 32.5738 8.06631C34.0234 8.52357 34.5427 11.2053 34.2081 16.506L34.1612 17.248Z" fill="#000072"/>
</svg>
